<?xml version="1.0" encoding="UTF-8" standalone="no"?>
<!DOCTYPE svg PUBLIC "-//W3C//DTD SVG 1.1//EN"
 "http://www.w3.org/Graphics/SVG/1.1/DTD/svg11.dtd">
<!-- Generated by graphviz version 2.44.1 (0)
 -->
<!-- Title: model_graph Pages: 1 -->
<svg width="578pt" height="729pt"
 viewBox="0.00 0.00 578.00 729.00" xmlns="http://www.w3.org/2000/svg" xmlns:xlink="http://www.w3.org/1999/xlink">
<g id="graph0" class="graph" transform="scale(1 1) rotate(0) translate(4 725)">
<title>model_graph</title>
<polygon fill="white" stroke="transparent" points="-4,4 -4,-725 574,-725 574,4 -4,4"/>
<!-- activity_models_ActivityType -->
<g id="node1" class="node">
<title>activity_models_ActivityType</title>
<polygon fill="white" stroke="transparent" points="8,-4 8,-92 186,-92 186,-4 8,-4"/>
<polygon fill="#1b563f" stroke="transparent" points="9,-70 9,-91 185,-91 185,-70 9,-70"/>
<text text-anchor="start" x="51" y="-79" font-family="Roboto" font-size="8.00"> &#160;&#160;&#160;</text>
<text text-anchor="start" x="61" y="-79" font-family="Roboto" font-weight="bold" font-size="10.00" fill="white"> &#160;&#160;&#160;ActivityType &#160;&#160;&#160;</text>
<text text-anchor="start" x="11" y="-62.6" font-family="Roboto" font-size="8.00"> &#160;&#160;&#160;</text>
<text text-anchor="start" x="21" y="-62.6" font-family="Roboto" font-weight="bold" font-size="8.00">id</text>
<text text-anchor="start" x="29" y="-62.6" font-family="Roboto" font-size="8.00"> &#160;&#160;&#160;</text>
<text text-anchor="start" x="93" y="-62.6" font-family="Roboto" font-size="8.00"> &#160;&#160;&#160;</text>
<text text-anchor="start" x="103" y="-62.6" font-family="Roboto" font-weight="bold" font-size="8.00">AutoField</text>
<text text-anchor="start" x="141" y="-62.6" font-family="Roboto" font-size="8.00"> &#160;&#160;&#160;</text>
<text text-anchor="start" x="11" y="-49.6" font-family="Roboto" font-size="8.00"> &#160;&#160;&#160;</text>
<text text-anchor="start" x="21" y="-49.6" font-family="Roboto" font-size="8.00">can_invite</text>
<text text-anchor="start" x="57" y="-49.6" font-family="Roboto" font-size="8.00"> &#160;&#160;&#160;</text>
<text text-anchor="start" x="93" y="-49.6" font-family="Roboto" font-size="8.00"> &#160;&#160;&#160;</text>
<text text-anchor="start" x="103" y="-49.6" font-family="Roboto" font-size="8.00">BooleanField</text>
<text text-anchor="start" x="149" y="-49.6" font-family="Roboto" font-size="8.00"> &#160;&#160;&#160;</text>
<text text-anchor="start" x="11" y="-36.6" font-family="Roboto" font-size="8.00"> &#160;&#160;&#160;</text>
<text text-anchor="start" x="21" y="-36.6" font-family="Roboto" font-size="8.00">guest_entry_fee</text>
<text text-anchor="start" x="79" y="-36.6" font-family="Roboto" font-size="8.00"> &#160;&#160;&#160;</text>
<text text-anchor="start" x="93" y="-36.6" font-family="Roboto" font-size="8.00"> &#160;&#160;&#160;</text>
<text text-anchor="start" x="103" y="-36.6" font-family="Roboto" font-size="8.00">PositiveIntegerField</text>
<text text-anchor="start" x="173" y="-36.6" font-family="Roboto" font-size="8.00"> &#160;&#160;&#160;</text>
<text text-anchor="start" x="11" y="-23.6" font-family="Roboto" font-size="8.00"> &#160;&#160;&#160;</text>
<text text-anchor="start" x="21" y="-23.6" font-family="Roboto" font-size="8.00">manage_entries</text>
<text text-anchor="start" x="79" y="-23.6" font-family="Roboto" font-size="8.00"> &#160;&#160;&#160;</text>
<text text-anchor="start" x="93" y="-23.6" font-family="Roboto" font-size="8.00"> &#160;&#160;&#160;</text>
<text text-anchor="start" x="103" y="-23.6" font-family="Roboto" font-size="8.00">BooleanField</text>
<text text-anchor="start" x="149" y="-23.6" font-family="Roboto" font-size="8.00"> &#160;&#160;&#160;</text>
<text text-anchor="start" x="11" y="-10.6" font-family="Roboto" font-size="8.00"> &#160;&#160;&#160;</text>
<text text-anchor="start" x="21" y="-10.6" font-family="Roboto" font-size="8.00">name</text>
<text text-anchor="start" x="42" y="-10.6" font-family="Roboto" font-size="8.00"> &#160;&#160;&#160;</text>
<text text-anchor="start" x="93" y="-10.6" font-family="Roboto" font-size="8.00"> &#160;&#160;&#160;</text>
<text text-anchor="start" x="103" y="-10.6" font-family="Roboto" font-size="8.00">CharField</text>
<text text-anchor="start" x="138" y="-10.6" font-family="Roboto" font-size="8.00"> &#160;&#160;&#160;</text>
<polygon fill="none" stroke="black" points="8,-4 8,-92 186,-92 186,-4 8,-4"/>
</g>
<!-- activity_models_Activity -->
<g id="node2" class="node">
<title>activity_models_Activity</title>
<polygon fill="white" stroke="transparent" points="197,-145 197,-324 369,-324 369,-145 197,-145"/>
<polygon fill="#1b563f" stroke="transparent" points="198,-301.5 198,-322.5 368,-322.5 368,-301.5 198,-301.5"/>
<text text-anchor="start" x="248" y="-310.5" font-family="Roboto" font-size="8.00"> &#160;&#160;&#160;</text>
<text text-anchor="start" x="258" y="-310.5" font-family="Roboto" font-weight="bold" font-size="10.00" fill="white"> &#160;&#160;&#160;Activity &#160;&#160;&#160;</text>
<text text-anchor="start" x="200" y="-294.1" font-family="Roboto" font-size="8.00"> &#160;&#160;&#160;</text>
<text text-anchor="start" x="210" y="-294.1" font-family="Roboto" font-weight="bold" font-size="8.00">id</text>
<text text-anchor="start" x="218" y="-294.1" font-family="Roboto" font-size="8.00"> &#160;&#160;&#160;</text>
<text text-anchor="start" x="285" y="-294.1" font-family="Roboto" font-size="8.00"> &#160;&#160;&#160;</text>
<text text-anchor="start" x="295" y="-294.1" font-family="Roboto" font-weight="bold" font-size="8.00">AutoField</text>
<text text-anchor="start" x="333" y="-294.1" font-family="Roboto" font-size="8.00"> &#160;&#160;&#160;</text>
<text text-anchor="start" x="200" y="-281.1" font-family="Roboto" font-size="8.00"> &#160;&#160;&#160;</text>
<text text-anchor="start" x="210" y="-281.1" font-family="Roboto" font-weight="bold" font-size="8.00">activity_type</text>
<text text-anchor="start" x="261" y="-281.1" font-family="Roboto" font-size="8.00"> &#160;&#160;&#160;</text>
<text text-anchor="start" x="285" y="-281.1" font-family="Roboto" font-size="8.00"> &#160;&#160;&#160;</text>
<text text-anchor="start" x="295" y="-281.1" font-family="Roboto" font-weight="bold" font-size="8.00">ForeignKey (id)</text>
<text text-anchor="start" x="356" y="-281.1" font-family="Roboto" font-size="8.00"> &#160;&#160;&#160;</text>
<text text-anchor="start" x="200" y="-268.1" font-family="Roboto" font-size="8.00"> &#160;&#160;&#160;</text>
<text text-anchor="start" x="210" y="-268.1" font-family="Roboto" font-weight="bold" font-size="8.00">attendees_club</text>
<text text-anchor="start" x="271" y="-268.1" font-family="Roboto" font-size="8.00"> &#160;&#160;&#160;</text>
<text text-anchor="start" x="285" y="-268.1" font-family="Roboto" font-size="8.00"> &#160;&#160;&#160;</text>
<text text-anchor="start" x="295" y="-268.1" font-family="Roboto" font-weight="bold" font-size="8.00">ForeignKey (id)</text>
<text text-anchor="start" x="356" y="-268.1" font-family="Roboto" font-size="8.00"> &#160;&#160;&#160;</text>
<text text-anchor="start" x="200" y="-255.1" font-family="Roboto" font-size="8.00"> &#160;&#160;&#160;</text>
<text text-anchor="start" x="210" y="-255.1" font-family="Roboto" font-weight="bold" font-size="8.00">creater</text>
<text text-anchor="start" x="238" y="-255.1" font-family="Roboto" font-size="8.00"> &#160;&#160;&#160;</text>
<text text-anchor="start" x="285" y="-255.1" font-family="Roboto" font-size="8.00"> &#160;&#160;&#160;</text>
<text text-anchor="start" x="295" y="-255.1" font-family="Roboto" font-weight="bold" font-size="8.00">ForeignKey (id)</text>
<text text-anchor="start" x="356" y="-255.1" font-family="Roboto" font-size="8.00"> &#160;&#160;&#160;</text>
<text text-anchor="start" x="200" y="-242.1" font-family="Roboto" font-size="8.00"> &#160;&#160;&#160;</text>
<text text-anchor="start" x="210" y="-242.1" font-family="Roboto" font-weight="bold" font-size="8.00">organizer</text>
<text text-anchor="start" x="247" y="-242.1" font-family="Roboto" font-size="8.00"> &#160;&#160;&#160;</text>
<text text-anchor="start" x="285" y="-242.1" font-family="Roboto" font-size="8.00"> &#160;&#160;&#160;</text>
<text text-anchor="start" x="295" y="-242.1" font-family="Roboto" font-weight="bold" font-size="8.00">ForeignKey (id)</text>
<text text-anchor="start" x="356" y="-242.1" font-family="Roboto" font-size="8.00"> &#160;&#160;&#160;</text>
<text text-anchor="start" x="200" y="-229.1" font-family="Roboto" font-size="8.00"> &#160;&#160;&#160;</text>
<text text-anchor="start" x="210" y="-229.1" font-family="Roboto" font-size="8.00">date_end</text>
<text text-anchor="start" x="244" y="-229.1" font-family="Roboto" font-size="8.00"> &#160;&#160;&#160;</text>
<text text-anchor="start" x="285" y="-229.1" font-family="Roboto" font-size="8.00"> &#160;&#160;&#160;</text>
<text text-anchor="start" x="295" y="-229.1" font-family="Roboto" font-size="8.00">DateTimeField</text>
<text text-anchor="start" x="347" y="-229.1" font-family="Roboto" font-size="8.00"> &#160;&#160;&#160;</text>
<text text-anchor="start" x="200" y="-216.1" font-family="Roboto" font-size="8.00"> &#160;&#160;&#160;</text>
<text text-anchor="start" x="210" y="-216.1" font-family="Roboto" font-size="8.00">date_start</text>
<text text-anchor="start" x="247" y="-216.1" font-family="Roboto" font-size="8.00"> &#160;&#160;&#160;</text>
<text text-anchor="start" x="285" y="-216.1" font-family="Roboto" font-size="8.00"> &#160;&#160;&#160;</text>
<text text-anchor="start" x="295" y="-216.1" font-family="Roboto" font-size="8.00">DateTimeField</text>
<text text-anchor="start" x="347" y="-216.1" font-family="Roboto" font-size="8.00"> &#160;&#160;&#160;</text>
<text text-anchor="start" x="200" y="-203.1" font-family="Roboto" font-size="8.00"> &#160;&#160;&#160;</text>
<text text-anchor="start" x="210" y="-203.1" font-family="Roboto" font-size="8.00">description</text>
<text text-anchor="start" x="249" y="-203.1" font-family="Roboto" font-size="8.00"> &#160;&#160;&#160;</text>
<text text-anchor="start" x="285" y="-203.1" font-family="Roboto" font-size="8.00"> &#160;&#160;&#160;</text>
<text text-anchor="start" x="295" y="-203.1" font-family="Roboto" font-size="8.00">TextField</text>
<text text-anchor="start" x="327" y="-203.1" font-family="Roboto" font-size="8.00"> &#160;&#160;&#160;</text>
<text text-anchor="start" x="200" y="-190.1" font-family="Roboto" font-size="8.00"> &#160;&#160;&#160;</text>
<text text-anchor="start" x="210" y="-190.1" font-family="Roboto" font-size="8.00" fill="#7b7b7b">location</text>
<text text-anchor="start" x="238" y="-190.1" font-family="Roboto" font-size="8.00"> &#160;&#160;&#160;</text>
<text text-anchor="start" x="285" y="-190.1" font-family="Roboto" font-size="8.00"> &#160;&#160;&#160;</text>
<text text-anchor="start" x="295" y="-190.1" font-family="Roboto" font-size="8.00" fill="#7b7b7b">CharField</text>
<text text-anchor="start" x="330" y="-190.1" font-family="Roboto" font-size="8.00"> &#160;&#160;&#160;</text>
<text text-anchor="start" x="200" y="-177.1" font-family="Roboto" font-size="8.00"> &#160;&#160;&#160;</text>
<text text-anchor="start" x="210" y="-177.1" font-family="Roboto" font-size="8.00">name</text>
<text text-anchor="start" x="231" y="-177.1" font-family="Roboto" font-size="8.00"> &#160;&#160;&#160;</text>
<text text-anchor="start" x="285" y="-177.1" font-family="Roboto" font-size="8.00"> &#160;&#160;&#160;</text>
<text text-anchor="start" x="295" y="-177.1" font-family="Roboto" font-size="8.00">CharField</text>
<text text-anchor="start" x="330" y="-177.1" font-family="Roboto" font-size="8.00"> &#160;&#160;&#160;</text>
<text text-anchor="start" x="200" y="-164.1" font-family="Roboto" font-size="8.00"> &#160;&#160;&#160;</text>
<text text-anchor="start" x="210" y="-164.1" font-family="Roboto" font-size="8.00">open</text>
<text text-anchor="start" x="229" y="-164.1" font-family="Roboto" font-size="8.00"> &#160;&#160;&#160;</text>
<text text-anchor="start" x="285" y="-164.1" font-family="Roboto" font-size="8.00"> &#160;&#160;&#160;</text>
<text text-anchor="start" x="295" y="-164.1" font-family="Roboto" font-size="8.00">BooleanField</text>
<text text-anchor="start" x="341" y="-164.1" font-family="Roboto" font-size="8.00"> &#160;&#160;&#160;</text>
<text text-anchor="start" x="200" y="-151.1" font-family="Roboto" font-size="8.00"> &#160;&#160;&#160;</text>
<text text-anchor="start" x="210" y="-151.1" font-family="Roboto" font-size="8.00">valid</text>
<text text-anchor="start" x="226" y="-151.1" font-family="Roboto" font-size="8.00"> &#160;&#160;&#160;</text>
<text text-anchor="start" x="285" y="-151.1" font-family="Roboto" font-size="8.00"> &#160;&#160;&#160;</text>
<text text-anchor="start" x="295" y="-151.1" font-family="Roboto" font-size="8.00">BooleanField</text>
<text text-anchor="start" x="341" y="-151.1" font-family="Roboto" font-size="8.00"> &#160;&#160;&#160;</text>
<polygon fill="none" stroke="black" points="197,-145 197,-324 369,-324 369,-145 197,-145"/>
</g>
<!-- activity_models_Activity&#45;&gt;activity_models_ActivityType -->
<g id="edge1" class="edge">
<title>activity_models_Activity&#45;&gt;activity_models_ActivityType</title>
<path fill="none" stroke="black" d="M183.88,-135.18C170.27,-121.68 156.83,-108.35 144.74,-96.35"/>
<ellipse fill="black" stroke="black" cx="186.89" cy="-138.16" rx="4" ry="4"/>
<text text-anchor="middle" x="197" y="-116.6" font-family="Roboto" font-size="8.00"> activity_type (+)</text>
</g>
<!-- django_contrib_auth_models_User -->
<g id="node6" class="node">
<title>django_contrib_auth_models_User</title>
<polygon fill="white" stroke="transparent" points="220,-37.5 220,-58.5 264,-58.5 264,-37.5 220,-37.5"/>
<polygon fill="#1b563f" stroke="transparent" points="220,-37 220,-58 264,-58 264,-37 220,-37"/>
<text text-anchor="start" x="224" y="-45.4" font-family="Roboto" font-size="8.00"> &#160;</text>
<text text-anchor="start" x="229" y="-45.4" font-family="Roboto" font-size="12.00" fill="white">User</text>
<text text-anchor="start" x="255" y="-45.4" font-family="Roboto" font-size="8.00"> &#160;</text>
</g>
<!-- activity_models_Activity&#45;&gt;django_contrib_auth_models_User -->
<g id="edge2" class="edge">
<title>activity_models_Activity&#45;&gt;django_contrib_auth_models_User</title>
<path fill="none" stroke="black" d="M245.08,-133.07C244.3,-129.69 243.61,-126.33 243,-123 239.5,-103.79 239.8,-81.3 240.63,-66.2"/>
<ellipse fill="black" stroke="black" cx="246.06" cy="-137.08" rx="4" ry="4"/>
<text text-anchor="middle" x="272.5" y="-116.6" font-family="Roboto" font-size="8.00"> creater (activity)</text>
</g>
<!-- member_models_Club -->
<g id="node7" class="node">
<title>member_models_Club</title>
<polygon fill="white" stroke="transparent" points="338,-37.5 338,-58.5 382,-58.5 382,-37.5 338,-37.5"/>
<polygon fill="#1b563f" stroke="transparent" points="338,-37 338,-58 382,-58 382,-37 338,-37"/>
<text text-anchor="start" x="342" y="-45.4" font-family="Roboto" font-size="8.00"> &#160;</text>
<text text-anchor="start" x="347" y="-45.4" font-family="Roboto" font-size="12.00" fill="white">Club</text>
<text text-anchor="start" x="373" y="-45.4" font-family="Roboto" font-size="8.00"> &#160;</text>
</g>
<!-- activity_models_Activity&#45;&gt;member_models_Club -->
<g id="edge3" class="edge">
<title>activity_models_Activity&#45;&gt;member_models_Club</title>
<path fill="none" stroke="black" d="M316.94,-133.22C319.56,-126.67 322.25,-120.22 325,-114 332.41,-97.23 342.46,-78.92 349.89,-66.01"/>
<ellipse fill="black" stroke="black" cx="315.37" cy="-137.22" rx="4" ry="4"/>
<text text-anchor="middle" x="349.5" y="-116.6" font-family="Roboto" font-size="8.00"> organizer (+)</text>
</g>
<!-- activity_models_Activity&#45;&gt;member_models_Club -->
<g id="edge4" class="edge">
<title>activity_models_Activity&#45;&gt;member_models_Club</title>
<path fill="none" stroke="black" d="M369.62,-133.72C371.23,-130.19 372.7,-126.61 374,-123 380.76,-104.17 374.44,-81.42 368.26,-66.15"/>
<ellipse fill="black" stroke="black" cx="367.85" cy="-137.32" rx="4" ry="4"/>
<text text-anchor="middle" x="412" y="-116.6" font-family="Roboto" font-size="8.00"> attendees_club (+)</text>
</g>
<!-- activity_models_Entry -->
<g id="node3" class="node">
<title>activity_models_Entry</title>
<polygon fill="white" stroke="transparent" points="284,-518 284,-606 448,-606 448,-518 284,-518"/>
<polygon fill="#1b563f" stroke="transparent" points="285,-584 285,-605 447,-605 447,-584 285,-584"/>
<text text-anchor="start" x="336.5" y="-593" font-family="Roboto" font-size="8.00"> &#160;&#160;&#160;</text>
<text text-anchor="start" x="346.5" y="-593" font-family="Roboto" font-weight="bold" font-size="10.00" fill="white"> &#160;&#160;&#160;Entry &#160;&#160;&#160;</text>
<text text-anchor="start" x="287" y="-576.6" font-family="Roboto" font-size="8.00"> &#160;&#160;&#160;</text>
<text text-anchor="start" x="297" y="-576.6" font-family="Roboto" font-weight="bold" font-size="8.00">id</text>
<text text-anchor="start" x="305" y="-576.6" font-family="Roboto" font-size="8.00"> &#160;&#160;&#160;</text>
<text text-anchor="start" x="340" y="-576.6" font-family="Roboto" font-size="8.00"> &#160;&#160;&#160;</text>
<text text-anchor="start" x="350" y="-576.6" font-family="Roboto" font-weight="bold" font-size="8.00">AutoField</text>
<text text-anchor="start" x="388" y="-576.6" font-family="Roboto" font-size="8.00"> &#160;&#160;&#160;</text>
<text text-anchor="start" x="287" y="-563.6" font-family="Roboto" font-size="8.00"> &#160;&#160;&#160;</text>
<text text-anchor="start" x="297" y="-563.6" font-family="Roboto" font-weight="bold" font-size="8.00">activity</text>
<text text-anchor="start" x="326" y="-563.6" font-family="Roboto" font-size="8.00"> &#160;&#160;&#160;</text>
<text text-anchor="start" x="340" y="-563.6" font-family="Roboto" font-size="8.00"> &#160;&#160;&#160;</text>
<text text-anchor="start" x="350" y="-563.6" font-family="Roboto" font-weight="bold" font-size="8.00">ForeignKey (id)</text>
<text text-anchor="start" x="411" y="-563.6" font-family="Roboto" font-size="8.00"> &#160;&#160;&#160;</text>
<text text-anchor="start" x="287" y="-550.6" font-family="Roboto" font-size="8.00"> &#160;&#160;&#160;</text>
<text text-anchor="start" x="297" y="-550.6" font-family="Roboto" font-weight="bold" font-size="8.00">guest</text>
<text text-anchor="start" x="320" y="-550.6" font-family="Roboto" font-size="8.00"> &#160;&#160;&#160;</text>
<text text-anchor="start" x="340" y="-550.6" font-family="Roboto" font-size="8.00"> &#160;&#160;&#160;</text>
<text text-anchor="start" x="350" y="-550.6" font-family="Roboto" font-weight="bold" font-size="8.00">OneToOneField (id)</text>
<text text-anchor="start" x="426" y="-550.6" font-family="Roboto" font-size="8.00"> &#160;&#160;&#160;</text>
<text text-anchor="start" x="287" y="-537.6" font-family="Roboto" font-size="8.00"> &#160;&#160;&#160;</text>
<text text-anchor="start" x="297" y="-537.6" font-family="Roboto" font-weight="bold" font-size="8.00">note</text>
<text text-anchor="start" x="315" y="-537.6" font-family="Roboto" font-size="8.00"> &#160;&#160;&#160;</text>
<text text-anchor="start" x="340" y="-537.6" font-family="Roboto" font-size="8.00"> &#160;&#160;&#160;</text>
<text text-anchor="start" x="350" y="-537.6" font-family="Roboto" font-weight="bold" font-size="8.00">ForeignKey (note_ptr)</text>
<text text-anchor="start" x="435" y="-537.6" font-family="Roboto" font-size="8.00"> &#160;&#160;&#160;</text>
<text text-anchor="start" x="287" y="-524.6" font-family="Roboto" font-size="8.00"> &#160;&#160;&#160;</text>
<text text-anchor="start" x="297" y="-524.6" font-family="Roboto" font-size="8.00">time</text>
<text text-anchor="start" x="313" y="-524.6" font-family="Roboto" font-size="8.00"> &#160;&#160;&#160;</text>
<text text-anchor="start" x="340" y="-524.6" font-family="Roboto" font-size="8.00"> &#160;&#160;&#160;</text>
<text text-anchor="start" x="350" y="-524.6" font-family="Roboto" font-size="8.00">DateTimeField</text>
<text text-anchor="start" x="402" y="-524.6" font-family="Roboto" font-size="8.00"> &#160;&#160;&#160;</text>
<polygon fill="none" stroke="black" points="284,-518 284,-606 448,-606 448,-518 284,-518"/>
</g>
<!-- activity_models_Entry&#45;&gt;activity_models_Activity -->
<g id="edge5" class="edge">
<title>activity_models_Entry&#45;&gt;activity_models_Activity</title>
<path fill="none" stroke="black" d="M268.49,-526.87C243.03,-513.01 218.65,-494.17 204,-469 178.65,-425.45 193.33,-372.56 216.59,-328.14"/>
<ellipse fill="black" stroke="black" cx="272.15" cy="-528.79" rx="4" ry="4"/>
<text text-anchor="middle" x="233" y="-419.1" font-family="Roboto" font-size="8.00"> activity (entries)</text>
</g>
<!-- activity_models_Guest -->
<g id="node4" class="node">
<title>activity_models_Guest</title>
<polygon fill="white" stroke="transparent" points="279.5,-377 279.5,-465 452.5,-465 452.5,-377 279.5,-377"/>
<polygon fill="#1b563f" stroke="transparent" points="281,-443 281,-464 452,-464 452,-443 281,-443"/>
<text text-anchor="start" x="335.5" y="-452" font-family="Roboto" font-size="8.00"> &#160;&#160;&#160;</text>
<text text-anchor="start" x="345.5" y="-452" font-family="Roboto" font-weight="bold" font-size="10.00" fill="white"> &#160;&#160;&#160;Guest &#160;&#160;&#160;</text>
<text text-anchor="start" x="283" y="-435.6" font-family="Roboto" font-size="8.00"> &#160;&#160;&#160;</text>
<text text-anchor="start" x="293" y="-435.6" font-family="Roboto" font-weight="bold" font-size="8.00">id</text>
<text text-anchor="start" x="301" y="-435.6" font-family="Roboto" font-size="8.00"> &#160;&#160;&#160;</text>
<text text-anchor="start" x="345" y="-435.6" font-family="Roboto" font-size="8.00"> &#160;&#160;&#160;</text>
<text text-anchor="start" x="355" y="-435.6" font-family="Roboto" font-weight="bold" font-size="8.00">AutoField</text>
<text text-anchor="start" x="393" y="-435.6" font-family="Roboto" font-size="8.00"> &#160;&#160;&#160;</text>
<text text-anchor="start" x="283" y="-422.6" font-family="Roboto" font-size="8.00"> &#160;&#160;&#160;</text>
<text text-anchor="start" x="293" y="-422.6" font-family="Roboto" font-weight="bold" font-size="8.00">activity</text>
<text text-anchor="start" x="322" y="-422.6" font-family="Roboto" font-size="8.00"> &#160;&#160;&#160;</text>
<text text-anchor="start" x="345" y="-422.6" font-family="Roboto" font-size="8.00"> &#160;&#160;&#160;</text>
<text text-anchor="start" x="355" y="-422.6" font-family="Roboto" font-weight="bold" font-size="8.00">ForeignKey (id)</text>
<text text-anchor="start" x="416" y="-422.6" font-family="Roboto" font-size="8.00"> &#160;&#160;&#160;</text>
<text text-anchor="start" x="283" y="-409.6" font-family="Roboto" font-size="8.00"> &#160;&#160;&#160;</text>
<text text-anchor="start" x="293" y="-409.6" font-family="Roboto" font-weight="bold" font-size="8.00">inviter</text>
<text text-anchor="start" x="318" y="-409.6" font-family="Roboto" font-size="8.00"> &#160;&#160;&#160;</text>
<text text-anchor="start" x="345" y="-409.6" font-family="Roboto" font-size="8.00"> &#160;&#160;&#160;</text>
<text text-anchor="start" x="355" y="-409.6" font-family="Roboto" font-weight="bold" font-size="8.00">ForeignKey (note_ptr)</text>
<text text-anchor="start" x="440" y="-409.6" font-family="Roboto" font-size="8.00"> &#160;&#160;&#160;</text>
<text text-anchor="start" x="283" y="-396.6" font-family="Roboto" font-size="8.00"> &#160;&#160;&#160;</text>
<text text-anchor="start" x="293" y="-396.6" font-family="Roboto" font-size="8.00">first_name</text>
<text text-anchor="start" x="331" y="-396.6" font-family="Roboto" font-size="8.00"> &#160;&#160;&#160;</text>
<text text-anchor="start" x="345" y="-396.6" font-family="Roboto" font-size="8.00"> &#160;&#160;&#160;</text>
<text text-anchor="start" x="355" y="-396.6" font-family="Roboto" font-size="8.00">CharField</text>
<text text-anchor="start" x="390" y="-396.6" font-family="Roboto" font-size="8.00"> &#160;&#160;&#160;</text>
<text text-anchor="start" x="283" y="-383.6" font-family="Roboto" font-size="8.00"> &#160;&#160;&#160;</text>
<text text-anchor="start" x="293" y="-383.6" font-family="Roboto" font-size="8.00">last_name</text>
<text text-anchor="start" x="330" y="-383.6" font-family="Roboto" font-size="8.00"> &#160;&#160;&#160;</text>
<text text-anchor="start" x="345" y="-383.6" font-family="Roboto" font-size="8.00"> &#160;&#160;&#160;</text>
<text text-anchor="start" x="355" y="-383.6" font-family="Roboto" font-size="8.00">CharField</text>
<text text-anchor="start" x="390" y="-383.6" font-family="Roboto" font-size="8.00"> &#160;&#160;&#160;</text>
<polygon fill="none" stroke="black" points="279.5,-377 279.5,-465 452.5,-465 452.5,-377 279.5,-377"/>
</g>
<!-- activity_models_Entry&#45;&gt;activity_models_Guest -->
<g id="edge7" class="edge">
<title>activity_models_Entry&#45;&gt;activity_models_Guest</title>
<path fill="none" stroke="black" d="M366,-513.94C366,-499.45 366,-483.5 366,-469.01"/>
<text text-anchor="middle" x="390.5" y="-489.6" font-family="Roboto" font-size="8.00"> guest (entry)</text>
</g>
<!-- note_models_notes_NoteUser -->
<g id="node8" class="node">
<title>note_models_notes_NoteUser</title>
<polygon fill="white" stroke="transparent" points="411,-224 411,-245 481,-245 481,-224 411,-224"/>
<polygon fill="#1b563f" stroke="transparent" points="411,-223.5 411,-244.5 481,-244.5 481,-223.5 411,-223.5"/>
<text text-anchor="start" x="415" y="-231.9" font-family="Roboto" font-size="8.00"> &#160;</text>
<text text-anchor="start" x="420" y="-231.9" font-family="Roboto" font-size="12.00" fill="white">NoteUser</text>
<text text-anchor="start" x="472" y="-231.9" font-family="Roboto" font-size="8.00"> &#160;</text>
</g>
<!-- activity_models_Entry&#45;&gt;note_models_notes_NoteUser -->
<g id="edge6" class="edge">
<title>activity_models_Entry&#45;&gt;note_models_notes_NoteUser</title>
<path fill="none" stroke="black" d="M442.25,-507.94C453.52,-496.48 463.51,-483.41 470,-469 503.73,-394.13 469.49,-292.46 453.39,-252.56"/>
<ellipse fill="black" stroke="black" cx="439.12" cy="-510.99" rx="4" ry="4"/>
<text text-anchor="middle" x="506.5" y="-419.1" font-family="Roboto" font-size="8.00"> note (entry)</text>
</g>
<!-- activity_models_Guest&#45;&gt;activity_models_Activity -->
<g id="edge8" class="edge">
<title>activity_models_Guest&#45;&gt;activity_models_Activity</title>
<path fill="none" stroke="black" d="M341.43,-365.38C336.13,-353.6 330.39,-340.84 324.64,-328.06"/>
<ellipse fill="black" stroke="black" cx="343.2" cy="-369.32" rx="4" ry="4"/>
<text text-anchor="middle" x="354.5" y="-348.6" font-family="Roboto" font-size="8.00"> activity (+)</text>
</g>
<!-- activity_models_Guest&#45;&gt;note_models_notes_NoteUser -->
<g id="edge9" class="edge">
<title>activity_models_Guest&#45;&gt;note_models_notes_NoteUser</title>
<path fill="none" stroke="black" d="M389.66,-365.44C406.3,-327.05 427.51,-278.15 438.55,-252.68"/>
<ellipse fill="black" stroke="black" cx="387.99" cy="-369.3" rx="4" ry="4"/>
<text text-anchor="middle" x="424.5" y="-348.6" font-family="Roboto" font-size="8.00"> inviter (guests)</text>
</g>
<!-- activity_models_GuestTransaction -->
<g id="node5" class="node">
<title>activity_models_GuestTransaction</title>
<polygon fill="white" stroke="transparent" points="350.5,-668 350.5,-717 537.5,-717 537.5,-668 350.5,-668"/>
<polygon fill="#1b563f" stroke="transparent" points="352,-694.5 352,-715.5 537,-715.5 537,-694.5 352,-694.5"/>
<text text-anchor="start" x="386.5" y="-703.5" font-family="Roboto" font-size="8.00"> &#160;&#160;&#160;</text>
<text text-anchor="start" x="396.5" y="-703.5" font-family="Roboto" font-weight="bold" font-size="10.00" fill="white"> &#160;&#160;&#160;GuestTransaction &#160;&#160;&#160;</text>
<text text-anchor="start" x="354" y="-687.1" font-family="Roboto" font-size="8.00"> &#160;&#160;&#160;</text>
<text text-anchor="start" x="364" y="-687.1" font-family="Roboto" font-weight="bold" font-size="8.00">transaction_ptr</text>
<text text-anchor="start" x="425" y="-687.1" font-family="Roboto" font-size="8.00"> &#160;&#160;&#160;</text>
<text text-anchor="start" x="439" y="-687.1" font-family="Roboto" font-size="8.00"> &#160;&#160;&#160;</text>
<text text-anchor="start" x="449" y="-687.1" font-family="Roboto" font-weight="bold" font-size="8.00">OneToOneField (id)</text>
<text text-anchor="start" x="525" y="-687.1" font-family="Roboto" font-size="8.00"> &#160;&#160;&#160;</text>
<text text-anchor="start" x="354" y="-674.1" font-family="Roboto" font-size="8.00"> &#160;&#160;&#160;</text>
<text text-anchor="start" x="364" y="-674.1" font-family="Roboto" font-weight="bold" font-size="8.00">entry</text>
<text text-anchor="start" x="385" y="-674.1" font-family="Roboto" font-size="8.00"> &#160;&#160;&#160;</text>
<text text-anchor="start" x="439" y="-674.1" font-family="Roboto" font-size="8.00"> &#160;&#160;&#160;</text>
<text text-anchor="start" x="449" y="-674.1" font-family="Roboto" font-weight="bold" font-size="8.00">OneToOneField (id)</text>
<text text-anchor="start" x="525" y="-674.1" font-family="Roboto" font-size="8.00"> &#160;&#160;&#160;</text>
<polygon fill="none" stroke="black" points="350.5,-668 350.5,-717 537.5,-717 537.5,-668 350.5,-668"/>
</g>
<!-- activity_models_GuestTransaction&#45;&gt;activity_models_Entry -->
<g id="edge10" class="edge">
<title>activity_models_GuestTransaction&#45;&gt;activity_models_Entry</title>
<path fill="none" stroke="black" d="M423.89,-663.91C419.84,-658.07 415.69,-651.89 412,-646 404.83,-634.55 397.53,-621.92 390.93,-610.04"/>
<text text-anchor="middle" x="456" y="-635.1" font-family="Roboto" font-size="8.00"> entry (guesttransaction)</text>
</g>
<!-- note_models_transactions_Transaction -->
<g id="node9" class="node">
<title>note_models_transactions_Transaction</title>
<polygon fill="white" stroke="transparent" points="482,-551.5 482,-572.5 562,-572.5 562,-551.5 482,-551.5"/>
<polygon fill="#1b563f" stroke="transparent" points="482,-551 482,-572 562,-572 562,-551 482,-551"/>
<text text-anchor="start" x="486" y="-559.4" font-family="Roboto" font-size="8.00"> &#160;</text>
<text text-anchor="start" x="491" y="-559.4" font-family="Roboto" font-size="12.00" fill="white">Transaction</text>
<text text-anchor="start" x="553" y="-559.4" font-family="Roboto" font-size="8.00"> &#160;</text>
</g>
<!-- activity_models_GuestTransaction&#45;&gt;note_models_transactions_Transaction -->
<g id="edge11" class="edge">
<title>activity_models_GuestTransaction&#45;&gt;note_models_transactions_Transaction</title>
<path fill="none" stroke="black" d="M484.47,-663.95C490.33,-658.55 495.78,-652.52 500,-646 510.86,-629.2 516.38,-607.22 519.17,-590.09"/>
<polygon fill="none" stroke="black" points="522.64,-590.54 520.58,-580.15 515.71,-589.56 522.64,-590.54"/>
<text text-anchor="middle" x="528" y="-639.6" font-family="Roboto" font-size="8.00"> multi&#45;table</text>
<text text-anchor="middle" x="528" y="-630.6" font-family="Roboto" font-size="8.00">inheritance</text>
</g>
</g>
</svg>
