<?xml version="1.0" encoding="UTF-8" standalone="no"?>
<!DOCTYPE svg PUBLIC "-//W3C//DTD SVG 1.1//EN"
 "http://www.w3.org/Graphics/SVG/1.1/DTD/svg11.dtd">
<!-- Generated by graphviz version 2.44.1 (0)
 -->
<!-- Title: model_graph Pages: 1 -->
<svg width="209pt" height="237pt"
 viewBox="0.00 0.00 208.50 237.00" xmlns="http://www.w3.org/2000/svg" xmlns:xlink="http://www.w3.org/1999/xlink">
<g id="graph0" class="graph" transform="scale(1 1) rotate(0) translate(4 233)">
<title>model_graph</title>
<polygon fill="white" stroke="transparent" points="-4,4 -4,-233 204.5,-233 204.5,4 -4,4"/>
<!-- logs_models_Changelog -->
<g id="node1" class="node">
<title>logs_models_Changelog</title>
<polygon fill="white" stroke="transparent" points="8,-85 8,-225 181,-225 181,-85 8,-85"/>
<polygon fill="#1b563f" stroke="transparent" points="9.5,-203 9.5,-224 180.5,-224 180.5,-203 9.5,-203"/>
<text text-anchor="start" x="52" y="-212" font-family="Roboto" font-size="8.00"> &#160;&#160;&#160;</text>
<text text-anchor="start" x="62" y="-212" font-family="Roboto" font-weight="bold" font-size="10.00" fill="white"> &#160;&#160;&#160;Changelog &#160;&#160;&#160;</text>
<text text-anchor="start" x="11.5" y="-195.6" font-family="Roboto" font-size="8.00"> &#160;&#160;&#160;</text>
<text text-anchor="start" x="21.5" y="-195.6" font-family="Roboto" font-weight="bold" font-size="8.00">id</text>
<text text-anchor="start" x="29.5" y="-195.6" font-family="Roboto" font-size="8.00"> &#160;&#160;&#160;</text>
<text text-anchor="start" x="78.5" y="-195.6" font-family="Roboto" font-size="8.00"> &#160;&#160;&#160;</text>
<text text-anchor="start" x="88.5" y="-195.6" font-family="Roboto" font-weight="bold" font-size="8.00">AutoField</text>
<text text-anchor="start" x="126.5" y="-195.6" font-family="Roboto" font-size="8.00"> &#160;&#160;&#160;</text>
<text text-anchor="start" x="11.5" y="-182.6" font-family="Roboto" font-size="8.00"> &#160;&#160;&#160;</text>
<text text-anchor="start" x="21.5" y="-182.6" font-family="Roboto" font-weight="bold" font-size="8.00">model</text>
<text text-anchor="start" x="46.5" y="-182.6" font-family="Roboto" font-size="8.00"> &#160;&#160;&#160;</text>
<text text-anchor="start" x="78.5" y="-182.6" font-family="Roboto" font-size="8.00"> &#160;&#160;&#160;</text>
<text text-anchor="start" x="88.5" y="-182.6" font-family="Roboto" font-weight="bold" font-size="8.00">ForeignKey (id)</text>
<text text-anchor="start" x="149.5" y="-182.6" font-family="Roboto" font-size="8.00"> &#160;&#160;&#160;</text>
<text text-anchor="start" x="11.5" y="-169.6" font-family="Roboto" font-size="8.00"> &#160;&#160;&#160;</text>
<text text-anchor="start" x="21.5" y="-169.6" font-family="Roboto" font-weight="bold" font-size="8.00">user</text>
<text text-anchor="start" x="39.5" y="-169.6" font-family="Roboto" font-size="8.00"> &#160;&#160;&#160;</text>
<text text-anchor="start" x="78.5" y="-169.6" font-family="Roboto" font-size="8.00"> &#160;&#160;&#160;</text>
<text text-anchor="start" x="88.5" y="-169.6" font-family="Roboto" font-weight="bold" font-size="8.00">ForeignKey (id)</text>
<text text-anchor="start" x="149.5" y="-169.6" font-family="Roboto" font-size="8.00"> &#160;&#160;&#160;</text>
<text text-anchor="start" x="11.5" y="-156.6" font-family="Roboto" font-size="8.00"> &#160;&#160;&#160;</text>
<text text-anchor="start" x="21.5" y="-156.6" font-family="Roboto" font-size="8.00">action</text>
<text text-anchor="start" x="43.5" y="-156.6" font-family="Roboto" font-size="8.00"> &#160;&#160;&#160;</text>
<text text-anchor="start" x="78.5" y="-156.6" font-family="Roboto" font-size="8.00"> &#160;&#160;&#160;</text>
<text text-anchor="start" x="88.5" y="-156.6" font-family="Roboto" font-size="8.00">CharField</text>
<text text-anchor="start" x="123.5" y="-156.6" font-family="Roboto" font-size="8.00"> &#160;&#160;&#160;</text>
<text text-anchor="start" x="11.5" y="-143.6" font-family="Roboto" font-size="8.00"> &#160;&#160;&#160;</text>
<text text-anchor="start" x="21.5" y="-143.6" font-family="Roboto" font-size="8.00" fill="#7b7b7b">data</text>
<text text-anchor="start" x="37.5" y="-143.6" font-family="Roboto" font-size="8.00"> &#160;&#160;&#160;</text>
<text text-anchor="start" x="78.5" y="-143.6" font-family="Roboto" font-size="8.00"> &#160;&#160;&#160;</text>
<text text-anchor="start" x="88.5" y="-143.6" font-family="Roboto" font-size="8.00" fill="#7b7b7b">TextField</text>
<text text-anchor="start" x="120.5" y="-143.6" font-family="Roboto" font-size="8.00"> &#160;&#160;&#160;</text>
<text text-anchor="start" x="11.5" y="-130.6" font-family="Roboto" font-size="8.00"> &#160;&#160;&#160;</text>
<text text-anchor="start" x="21.5" y="-130.6" font-family="Roboto" font-size="8.00">instance_pk</text>
<text text-anchor="start" x="64.5" y="-130.6" font-family="Roboto" font-size="8.00"> &#160;&#160;&#160;</text>
<text text-anchor="start" x="78.5" y="-130.6" font-family="Roboto" font-size="8.00"> &#160;&#160;&#160;</text>
<text text-anchor="start" x="88.5" y="-130.6" font-family="Roboto" font-size="8.00">CharField</text>
<text text-anchor="start" x="123.5" y="-130.6" font-family="Roboto" font-size="8.00"> &#160;&#160;&#160;</text>
<text text-anchor="start" x="11.5" y="-117.6" font-family="Roboto" font-size="8.00"> &#160;&#160;&#160;</text>
<text text-anchor="start" x="21.5" y="-117.6" font-family="Roboto" font-size="8.00" fill="#7b7b7b">ip</text>
<text text-anchor="start" x="28.5" y="-117.6" font-family="Roboto" font-size="8.00"> &#160;&#160;&#160;</text>
<text text-anchor="start" x="78.5" y="-117.6" font-family="Roboto" font-size="8.00"> &#160;&#160;&#160;</text>
<text text-anchor="start" x="88.5" y="-117.6" font-family="Roboto" font-size="8.00" fill="#7b7b7b">GenericIPAddressField</text>
<text text-anchor="start" x="168.5" y="-117.6" font-family="Roboto" font-size="8.00"> &#160;&#160;&#160;</text>
<text text-anchor="start" x="11.5" y="-104.6" font-family="Roboto" font-size="8.00"> &#160;&#160;&#160;</text>
<text text-anchor="start" x="21.5" y="-104.6" font-family="Roboto" font-size="8.00" fill="#7b7b7b">previous</text>
<text text-anchor="start" x="51.5" y="-104.6" font-family="Roboto" font-size="8.00"> &#160;&#160;&#160;</text>
<text text-anchor="start" x="78.5" y="-104.6" font-family="Roboto" font-size="8.00"> &#160;&#160;&#160;</text>
<text text-anchor="start" x="88.5" y="-104.6" font-family="Roboto" font-size="8.00" fill="#7b7b7b">TextField</text>
<text text-anchor="start" x="120.5" y="-104.6" font-family="Roboto" font-size="8.00"> &#160;&#160;&#160;</text>
<text text-anchor="start" x="11.5" y="-91.6" font-family="Roboto" font-size="8.00"> &#160;&#160;&#160;</text>
<text text-anchor="start" x="21.5" y="-91.6" font-family="Roboto" font-size="8.00">timestamp</text>
<text text-anchor="start" x="58.5" y="-91.6" font-family="Roboto" font-size="8.00"> &#160;&#160;&#160;</text>
<text text-anchor="start" x="78.5" y="-91.6" font-family="Roboto" font-size="8.00"> &#160;&#160;&#160;</text>
<text text-anchor="start" x="88.5" y="-91.6" font-family="Roboto" font-size="8.00">DateTimeField</text>
<text text-anchor="start" x="140.5" y="-91.6" font-family="Roboto" font-size="8.00"> &#160;&#160;&#160;</text>
<polygon fill="none" stroke="black" points="8,-85 8,-225 181,-225 181,-85 8,-85"/>
</g>
<!-- django_contrib_auth_models_User -->
<g id="node2" class="node">
<title>django_contrib_auth_models_User</title>
<polygon fill="white" stroke="transparent" points="23.5,-7.5 23.5,-28.5 67.5,-28.5 67.5,-7.5 23.5,-7.5"/>
<polygon fill="#1b563f" stroke="transparent" points="23.5,-7 23.5,-28 67.5,-28 67.5,-7 23.5,-7"/>
<text text-anchor="start" x="27.5" y="-15.4" font-family="Roboto" font-size="8.00"> &#160;</text>
<text text-anchor="start" x="32.5" y="-15.4" font-family="Roboto" font-size="12.00" fill="white">User</text>
<text text-anchor="start" x="58.5" y="-15.4" font-family="Roboto" font-size="8.00"> &#160;</text>
</g>
<!-- logs_models_Changelog&#45;&gt;django_contrib_auth_models_User -->
<g id="edge1" class="edge">
<title>logs_models_Changelog&#45;&gt;django_contrib_auth_models_User</title>
<path fill="none" stroke="black" d="M62.09,-73.17C60.86,-69.74 59.65,-66.34 58.5,-63 55.49,-54.26 52.54,-44.41 50.21,-36.25"/>
<ellipse fill="black" stroke="black" cx="63.48" cy="-76.95" rx="4" ry="4"/>
<text text-anchor="middle" x="90.5" y="-56.6" font-family="Roboto" font-size="8.00"> user (changelog)</text>
</g>
<!-- django_contrib_contenttypes_models_ContentType -->
<g id="node3" class="node">
<title>django_contrib_contenttypes_models_ContentType</title>
<polygon fill="white" stroke="transparent" points="101.5,-7.5 101.5,-28.5 187.5,-28.5 187.5,-7.5 101.5,-7.5"/>
<polygon fill="#1b563f" stroke="transparent" points="101.5,-7 101.5,-28 187.5,-28 187.5,-7 101.5,-7"/>
<text text-anchor="start" x="105.5" y="-15.4" font-family="Roboto" font-size="8.00"> &#160;</text>
<text text-anchor="start" x="110.5" y="-15.4" font-family="Roboto" font-size="12.00" fill="white">ContentType</text>
<text text-anchor="start" x="178.5" y="-15.4" font-family="Roboto" font-size="8.00"> &#160;</text>
</g>
<!-- logs_models_Changelog&#45;&gt;django_contrib_contenttypes_models_ContentType -->
<g id="edge2" class="edge">
<title>logs_models_Changelog&#45;&gt;django_contrib_contenttypes_models_ContentType</title>
<path fill="none" stroke="black" d="M124.44,-73.16C129.61,-59.21 134.48,-46.05 138.13,-36.2"/>
<ellipse fill="black" stroke="black" cx="122.94" cy="-77.22" rx="4" ry="4"/>
<text text-anchor="middle" x="165.5" y="-56.6" font-family="Roboto" font-size="8.00"> model (changelog)</text>
</g>
</g>
</svg>
