<?xml version="1.0" encoding="UTF-8" standalone="no"?>
<!DOCTYPE svg PUBLIC "-//W3C//DTD SVG 1.1//EN"
 "http://www.w3.org/Graphics/SVG/1.1/DTD/svg11.dtd">
<!-- Generated by graphviz version 2.44.1 (0)
 -->
<!-- Title: model_graph Pages: 1 -->
<svg width="970pt" height="493pt"
 viewBox="0.00 0.00 970.00 493.00" xmlns="http://www.w3.org/2000/svg" xmlns:xlink="http://www.w3.org/1999/xlink">
<g id="graph0" class="graph" transform="scale(1 1) rotate(0) translate(4 489)">
<title>model_graph</title>
<polygon fill="white" stroke="transparent" points="-4,4 -4,-489 966,-489 966,4 -4,4"/>
<!-- treasury_models_Invoice -->
<g id="node1" class="node">
<title>treasury_models_Invoice</title>
<polygon fill="white" stroke="transparent" points="8,-187 8,-340 176,-340 176,-187 8,-187"/>
<polygon fill="#1b563f" stroke="transparent" points="9,-317.5 9,-338.5 175,-338.5 175,-317.5 9,-317.5"/>
<text text-anchor="start" x="57.5" y="-326.5" font-family="Roboto" font-size="8.00"> &#160;&#160;&#160;</text>
<text text-anchor="start" x="67.5" y="-326.5" font-family="Roboto" font-weight="bold" font-size="10.00" fill="white"> &#160;&#160;&#160;Invoice &#160;&#160;&#160;</text>
<text text-anchor="start" x="11" y="-310.1" font-family="Roboto" font-size="8.00"> &#160;&#160;&#160;</text>
<text text-anchor="start" x="21" y="-310.1" font-family="Roboto" font-weight="bold" font-size="8.00">id</text>
<text text-anchor="start" x="29" y="-310.1" font-family="Roboto" font-size="8.00"> &#160;&#160;&#160;</text>
<text text-anchor="start" x="74" y="-310.1" font-family="Roboto" font-size="8.00"> &#160;&#160;&#160;</text>
<text text-anchor="start" x="84" y="-310.1" font-family="Roboto" font-weight="bold" font-size="8.00">PositiveIntegerField</text>
<text text-anchor="start" x="163" y="-310.1" font-family="Roboto" font-size="8.00"> &#160;&#160;&#160;</text>
<text text-anchor="start" x="11" y="-297.1" font-family="Roboto" font-size="8.00"> &#160;&#160;&#160;</text>
<text text-anchor="start" x="21" y="-297.1" font-family="Roboto" font-size="8.00">acquitted</text>
<text text-anchor="start" x="54" y="-297.1" font-family="Roboto" font-size="8.00"> &#160;&#160;&#160;</text>
<text text-anchor="start" x="74" y="-297.1" font-family="Roboto" font-size="8.00"> &#160;&#160;&#160;</text>
<text text-anchor="start" x="84" y="-297.1" font-family="Roboto" font-size="8.00">BooleanField</text>
<text text-anchor="start" x="130" y="-297.1" font-family="Roboto" font-size="8.00"> &#160;&#160;&#160;</text>
<text text-anchor="start" x="11" y="-284.1" font-family="Roboto" font-size="8.00"> &#160;&#160;&#160;</text>
<text text-anchor="start" x="21" y="-284.1" font-family="Roboto" font-size="8.00">address</text>
<text text-anchor="start" x="49" y="-284.1" font-family="Roboto" font-size="8.00"> &#160;&#160;&#160;</text>
<text text-anchor="start" x="74" y="-284.1" font-family="Roboto" font-size="8.00"> &#160;&#160;&#160;</text>
<text text-anchor="start" x="84" y="-284.1" font-family="Roboto" font-size="8.00">TextField</text>
<text text-anchor="start" x="116" y="-284.1" font-family="Roboto" font-size="8.00"> &#160;&#160;&#160;</text>
<text text-anchor="start" x="11" y="-271.1" font-family="Roboto" font-size="8.00"> &#160;&#160;&#160;</text>
<text text-anchor="start" x="21" y="-271.1" font-family="Roboto" font-size="8.00">bde</text>
<text text-anchor="start" x="35" y="-271.1" font-family="Roboto" font-size="8.00"> &#160;&#160;&#160;</text>
<text text-anchor="start" x="74" y="-271.1" font-family="Roboto" font-size="8.00"> &#160;&#160;&#160;</text>
<text text-anchor="start" x="84" y="-271.1" font-family="Roboto" font-size="8.00">CharField</text>
<text text-anchor="start" x="119" y="-271.1" font-family="Roboto" font-size="8.00"> &#160;&#160;&#160;</text>
<text text-anchor="start" x="11" y="-258.1" font-family="Roboto" font-size="8.00"> &#160;&#160;&#160;</text>
<text text-anchor="start" x="21" y="-258.1" font-family="Roboto" font-size="8.00">date</text>
<text text-anchor="start" x="37" y="-258.1" font-family="Roboto" font-size="8.00"> &#160;&#160;&#160;</text>
<text text-anchor="start" x="74" y="-258.1" font-family="Roboto" font-size="8.00"> &#160;&#160;&#160;</text>
<text text-anchor="start" x="84" y="-258.1" font-family="Roboto" font-size="8.00">DateField</text>
<text text-anchor="start" x="118" y="-258.1" font-family="Roboto" font-size="8.00"> &#160;&#160;&#160;</text>
<text text-anchor="start" x="11" y="-245.1" font-family="Roboto" font-size="8.00"> &#160;&#160;&#160;</text>
<text text-anchor="start" x="21" y="-245.1" font-family="Roboto" font-size="8.00">description</text>
<text text-anchor="start" x="60" y="-245.1" font-family="Roboto" font-size="8.00"> &#160;&#160;&#160;</text>
<text text-anchor="start" x="74" y="-245.1" font-family="Roboto" font-size="8.00"> &#160;&#160;&#160;</text>
<text text-anchor="start" x="84" y="-245.1" font-family="Roboto" font-size="8.00">TextField</text>
<text text-anchor="start" x="116" y="-245.1" font-family="Roboto" font-size="8.00"> &#160;&#160;&#160;</text>
<text text-anchor="start" x="11" y="-232.1" font-family="Roboto" font-size="8.00"> &#160;&#160;&#160;</text>
<text text-anchor="start" x="21" y="-232.1" font-family="Roboto" font-size="8.00">locked</text>
<text text-anchor="start" x="44" y="-232.1" font-family="Roboto" font-size="8.00"> &#160;&#160;&#160;</text>
<text text-anchor="start" x="74" y="-232.1" font-family="Roboto" font-size="8.00"> &#160;&#160;&#160;</text>
<text text-anchor="start" x="84" y="-232.1" font-family="Roboto" font-size="8.00">BooleanField</text>
<text text-anchor="start" x="130" y="-232.1" font-family="Roboto" font-size="8.00"> &#160;&#160;&#160;</text>
<text text-anchor="start" x="11" y="-219.1" font-family="Roboto" font-size="8.00"> &#160;&#160;&#160;</text>
<text text-anchor="start" x="21" y="-219.1" font-family="Roboto" font-size="8.00">name</text>
<text text-anchor="start" x="42" y="-219.1" font-family="Roboto" font-size="8.00"> &#160;&#160;&#160;</text>
<text text-anchor="start" x="74" y="-219.1" font-family="Roboto" font-size="8.00"> &#160;&#160;&#160;</text>
<text text-anchor="start" x="84" y="-219.1" font-family="Roboto" font-size="8.00">CharField</text>
<text text-anchor="start" x="119" y="-219.1" font-family="Roboto" font-size="8.00"> &#160;&#160;&#160;</text>
<text text-anchor="start" x="11" y="-206.1" font-family="Roboto" font-size="8.00"> &#160;&#160;&#160;</text>
<text text-anchor="start" x="21" y="-206.1" font-family="Roboto" font-size="8.00">object</text>
<text text-anchor="start" x="43" y="-206.1" font-family="Roboto" font-size="8.00"> &#160;&#160;&#160;</text>
<text text-anchor="start" x="74" y="-206.1" font-family="Roboto" font-size="8.00"> &#160;&#160;&#160;</text>
<text text-anchor="start" x="84" y="-206.1" font-family="Roboto" font-size="8.00">CharField</text>
<text text-anchor="start" x="119" y="-206.1" font-family="Roboto" font-size="8.00"> &#160;&#160;&#160;</text>
<text text-anchor="start" x="11" y="-193.1" font-family="Roboto" font-size="8.00"> &#160;&#160;&#160;</text>
<text text-anchor="start" x="21" y="-193.1" font-family="Roboto" font-size="8.00">tex</text>
<text text-anchor="start" x="32" y="-193.1" font-family="Roboto" font-size="8.00"> &#160;&#160;&#160;</text>
<text text-anchor="start" x="74" y="-193.1" font-family="Roboto" font-size="8.00"> &#160;&#160;&#160;</text>
<text text-anchor="start" x="84" y="-193.1" font-family="Roboto" font-size="8.00">TextField</text>
<text text-anchor="start" x="116" y="-193.1" font-family="Roboto" font-size="8.00"> &#160;&#160;&#160;</text>
<polygon fill="none" stroke="black" points="8,-187 8,-340 176,-340 176,-187 8,-187"/>
</g>
<!-- treasury_models_Product -->
<g id="node2" class="node">
<title>treasury_models_Product</title>
<polygon fill="white" stroke="transparent" points="11.5,-393 11.5,-481 172.5,-481 172.5,-393 11.5,-393"/>
<polygon fill="#1b563f" stroke="transparent" points="13,-459 13,-480 172,-480 172,-459 13,-459"/>
<text text-anchor="start" x="57" y="-468" font-family="Roboto" font-size="8.00"> &#160;&#160;&#160;</text>
<text text-anchor="start" x="67" y="-468" font-family="Roboto" font-weight="bold" font-size="10.00" fill="white"> &#160;&#160;&#160;Product &#160;&#160;&#160;</text>
<text text-anchor="start" x="15" y="-451.6" font-family="Roboto" font-size="8.00"> &#160;&#160;&#160;</text>
<text text-anchor="start" x="25" y="-451.6" font-family="Roboto" font-weight="bold" font-size="8.00">id</text>
<text text-anchor="start" x="33" y="-451.6" font-family="Roboto" font-size="8.00"> &#160;&#160;&#160;</text>
<text text-anchor="start" x="80" y="-451.6" font-family="Roboto" font-size="8.00"> &#160;&#160;&#160;</text>
<text text-anchor="start" x="90" y="-451.6" font-family="Roboto" font-weight="bold" font-size="8.00">AutoField</text>
<text text-anchor="start" x="128" y="-451.6" font-family="Roboto" font-size="8.00"> &#160;&#160;&#160;</text>
<text text-anchor="start" x="15" y="-438.6" font-family="Roboto" font-size="8.00"> &#160;&#160;&#160;</text>
<text text-anchor="start" x="25" y="-438.6" font-family="Roboto" font-weight="bold" font-size="8.00">invoice</text>
<text text-anchor="start" x="53" y="-438.6" font-family="Roboto" font-size="8.00"> &#160;&#160;&#160;</text>
<text text-anchor="start" x="80" y="-438.6" font-family="Roboto" font-size="8.00"> &#160;&#160;&#160;</text>
<text text-anchor="start" x="90" y="-438.6" font-family="Roboto" font-weight="bold" font-size="8.00">ForeignKey (id)</text>
<text text-anchor="start" x="151" y="-438.6" font-family="Roboto" font-size="8.00"> &#160;&#160;&#160;</text>
<text text-anchor="start" x="15" y="-425.6" font-family="Roboto" font-size="8.00"> &#160;&#160;&#160;</text>
<text text-anchor="start" x="25" y="-425.6" font-family="Roboto" font-size="8.00">amount</text>
<text text-anchor="start" x="53" y="-425.6" font-family="Roboto" font-size="8.00"> &#160;&#160;&#160;</text>
<text text-anchor="start" x="80" y="-425.6" font-family="Roboto" font-size="8.00"> &#160;&#160;&#160;</text>
<text text-anchor="start" x="90" y="-425.6" font-family="Roboto" font-size="8.00">IntegerField</text>
<text text-anchor="start" x="133" y="-425.6" font-family="Roboto" font-size="8.00"> &#160;&#160;&#160;</text>
<text text-anchor="start" x="15" y="-412.6" font-family="Roboto" font-size="8.00"> &#160;&#160;&#160;</text>
<text text-anchor="start" x="25" y="-412.6" font-family="Roboto" font-size="8.00">designation</text>
<text text-anchor="start" x="66" y="-412.6" font-family="Roboto" font-size="8.00"> &#160;&#160;&#160;</text>
<text text-anchor="start" x="80" y="-412.6" font-family="Roboto" font-size="8.00"> &#160;&#160;&#160;</text>
<text text-anchor="start" x="90" y="-412.6" font-family="Roboto" font-size="8.00">CharField</text>
<text text-anchor="start" x="125" y="-412.6" font-family="Roboto" font-size="8.00"> &#160;&#160;&#160;</text>
<text text-anchor="start" x="15" y="-399.6" font-family="Roboto" font-size="8.00"> &#160;&#160;&#160;</text>
<text text-anchor="start" x="25" y="-399.6" font-family="Roboto" font-size="8.00">quantity</text>
<text text-anchor="start" x="53" y="-399.6" font-family="Roboto" font-size="8.00"> &#160;&#160;&#160;</text>
<text text-anchor="start" x="80" y="-399.6" font-family="Roboto" font-size="8.00"> &#160;&#160;&#160;</text>
<text text-anchor="start" x="90" y="-399.6" font-family="Roboto" font-size="8.00">PositiveIntegerField</text>
<text text-anchor="start" x="160" y="-399.6" font-family="Roboto" font-size="8.00"> &#160;&#160;&#160;</text>
<polygon fill="none" stroke="black" points="11.5,-393 11.5,-481 172.5,-481 172.5,-393 11.5,-393"/>
</g>
<!-- treasury_models_Product&#45;&gt;treasury_models_Invoice -->
<g id="edge1" class="edge">
<title>treasury_models_Product&#45;&gt;treasury_models_Invoice</title>
<path fill="none" stroke="black" d="M92,-380.43C92,-368.88 92,-356.48 92,-344.25"/>
<ellipse fill="black" stroke="black" cx="92" cy="-384.68" rx="4" ry="4"/>
<text text-anchor="middle" x="124.5" y="-364.6" font-family="Roboto" font-size="8.00"> invoice (products)</text>
</g>
<!-- treasury_models_RemittanceType -->
<g id="node3" class="node">
<title>treasury_models_RemittanceType</title>
<polygon fill="white" stroke="transparent" points="213.5,-85 213.5,-134 382.5,-134 382.5,-85 213.5,-85"/>
<polygon fill="#1b563f" stroke="transparent" points="215,-111.5 215,-132.5 382,-132.5 382,-111.5 215,-111.5"/>
<text text-anchor="start" x="243" y="-120.5" font-family="Roboto" font-size="8.00"> &#160;&#160;&#160;</text>
<text text-anchor="start" x="253" y="-120.5" font-family="Roboto" font-weight="bold" font-size="10.00" fill="white"> &#160;&#160;&#160;RemittanceType &#160;&#160;&#160;</text>
<text text-anchor="start" x="217" y="-104.1" font-family="Roboto" font-size="8.00"> &#160;&#160;&#160;</text>
<text text-anchor="start" x="227" y="-104.1" font-family="Roboto" font-weight="bold" font-size="8.00">id</text>
<text text-anchor="start" x="235" y="-104.1" font-family="Roboto" font-size="8.00"> &#160;&#160;&#160;</text>
<text text-anchor="start" x="259" y="-104.1" font-family="Roboto" font-size="8.00"> &#160;&#160;&#160;</text>
<text text-anchor="start" x="269" y="-104.1" font-family="Roboto" font-weight="bold" font-size="8.00">AutoField</text>
<text text-anchor="start" x="307" y="-104.1" font-family="Roboto" font-size="8.00"> &#160;&#160;&#160;</text>
<text text-anchor="start" x="217" y="-91.1" font-family="Roboto" font-size="8.00"> &#160;&#160;&#160;</text>
<text text-anchor="start" x="227" y="-91.1" font-family="Roboto" font-weight="bold" font-size="8.00">note</text>
<text text-anchor="start" x="245" y="-91.1" font-family="Roboto" font-size="8.00"> &#160;&#160;&#160;</text>
<text text-anchor="start" x="259" y="-91.1" font-family="Roboto" font-size="8.00"> &#160;&#160;&#160;</text>
<text text-anchor="start" x="269" y="-91.1" font-family="Roboto" font-weight="bold" font-size="8.00">OneToOneField (note_ptr)</text>
<text text-anchor="start" x="370" y="-91.1" font-family="Roboto" font-size="8.00"> &#160;&#160;&#160;</text>
<polygon fill="none" stroke="black" points="213.5,-85 213.5,-134 382.5,-134 382.5,-85 213.5,-85"/>
</g>
<!-- note_models_notes_NoteSpecial -->
<g id="node7" class="node">
<title>note_models_notes_NoteSpecial</title>
<polygon fill="white" stroke="transparent" points="255,-7.5 255,-28.5 341,-28.5 341,-7.5 255,-7.5"/>
<polygon fill="#1b563f" stroke="transparent" points="255,-7 255,-28 341,-28 341,-7 255,-7"/>
<text text-anchor="start" x="259.5" y="-15.4" font-family="Roboto" font-size="8.00"> &#160;</text>
<text text-anchor="start" x="264.5" y="-15.4" font-family="Roboto" font-size="12.00" fill="white">NoteSpecial</text>
<text text-anchor="start" x="331.5" y="-15.4" font-family="Roboto" font-size="8.00"> &#160;</text>
</g>
<!-- treasury_models_RemittanceType&#45;&gt;note_models_notes_NoteSpecial -->
<g id="edge2" class="edge">
<title>treasury_models_RemittanceType&#45;&gt;note_models_notes_NoteSpecial</title>
<path fill="none" stroke="black" d="M298,-80.67C298,-66.1 298,-48.72 298,-36.13"/>
<text text-anchor="middle" x="337.5" y="-56.6" font-family="Roboto" font-size="8.00"> note (remittancetype)</text>
</g>
<!-- treasury_models_Remittance -->
<g id="node4" class="node">
<title>treasury_models_Remittance</title>
<polygon fill="white" stroke="transparent" points="210.5,-219.5 210.5,-307.5 385.5,-307.5 385.5,-219.5 210.5,-219.5"/>
<polygon fill="#1b563f" stroke="transparent" points="212,-285.5 212,-306.5 385,-306.5 385,-285.5 212,-285.5"/>
<text text-anchor="start" x="254" y="-294.5" font-family="Roboto" font-size="8.00"> &#160;&#160;&#160;</text>
<text text-anchor="start" x="264" y="-294.5" font-family="Roboto" font-weight="bold" font-size="10.00" fill="white"> &#160;&#160;&#160;Remittance &#160;&#160;&#160;</text>
<text text-anchor="start" x="214" y="-278.1" font-family="Roboto" font-size="8.00"> &#160;&#160;&#160;</text>
<text text-anchor="start" x="224" y="-278.1" font-family="Roboto" font-weight="bold" font-size="8.00">id</text>
<text text-anchor="start" x="232" y="-278.1" font-family="Roboto" font-size="8.00"> &#160;&#160;&#160;</text>
<text text-anchor="start" x="302" y="-278.1" font-family="Roboto" font-size="8.00"> &#160;&#160;&#160;</text>
<text text-anchor="start" x="312" y="-278.1" font-family="Roboto" font-weight="bold" font-size="8.00">AutoField</text>
<text text-anchor="start" x="350" y="-278.1" font-family="Roboto" font-size="8.00"> &#160;&#160;&#160;</text>
<text text-anchor="start" x="214" y="-265.1" font-family="Roboto" font-size="8.00"> &#160;&#160;&#160;</text>
<text text-anchor="start" x="224" y="-265.1" font-family="Roboto" font-weight="bold" font-size="8.00">remittance_type</text>
<text text-anchor="start" x="288" y="-265.1" font-family="Roboto" font-size="8.00"> &#160;&#160;&#160;</text>
<text text-anchor="start" x="302" y="-265.1" font-family="Roboto" font-size="8.00"> &#160;&#160;&#160;</text>
<text text-anchor="start" x="312" y="-265.1" font-family="Roboto" font-weight="bold" font-size="8.00">ForeignKey (id)</text>
<text text-anchor="start" x="373" y="-265.1" font-family="Roboto" font-size="8.00"> &#160;&#160;&#160;</text>
<text text-anchor="start" x="214" y="-252.1" font-family="Roboto" font-size="8.00"> &#160;&#160;&#160;</text>
<text text-anchor="start" x="224" y="-252.1" font-family="Roboto" font-size="8.00">closed</text>
<text text-anchor="start" x="247" y="-252.1" font-family="Roboto" font-size="8.00"> &#160;&#160;&#160;</text>
<text text-anchor="start" x="302" y="-252.1" font-family="Roboto" font-size="8.00"> &#160;&#160;&#160;</text>
<text text-anchor="start" x="312" y="-252.1" font-family="Roboto" font-size="8.00">BooleanField</text>
<text text-anchor="start" x="358" y="-252.1" font-family="Roboto" font-size="8.00"> &#160;&#160;&#160;</text>
<text text-anchor="start" x="214" y="-239.1" font-family="Roboto" font-size="8.00"> &#160;&#160;&#160;</text>
<text text-anchor="start" x="224" y="-239.1" font-family="Roboto" font-size="8.00">comment</text>
<text text-anchor="start" x="258" y="-239.1" font-family="Roboto" font-size="8.00"> &#160;&#160;&#160;</text>
<text text-anchor="start" x="302" y="-239.1" font-family="Roboto" font-size="8.00"> &#160;&#160;&#160;</text>
<text text-anchor="start" x="312" y="-239.1" font-family="Roboto" font-size="8.00">CharField</text>
<text text-anchor="start" x="347" y="-239.1" font-family="Roboto" font-size="8.00"> &#160;&#160;&#160;</text>
<text text-anchor="start" x="214" y="-226.1" font-family="Roboto" font-size="8.00"> &#160;&#160;&#160;</text>
<text text-anchor="start" x="224" y="-226.1" font-family="Roboto" font-size="8.00">date</text>
<text text-anchor="start" x="240" y="-226.1" font-family="Roboto" font-size="8.00"> &#160;&#160;&#160;</text>
<text text-anchor="start" x="302" y="-226.1" font-family="Roboto" font-size="8.00"> &#160;&#160;&#160;</text>
<text text-anchor="start" x="312" y="-226.1" font-family="Roboto" font-size="8.00">DateTimeField</text>
<text text-anchor="start" x="364" y="-226.1" font-family="Roboto" font-size="8.00"> &#160;&#160;&#160;</text>
<polygon fill="none" stroke="black" points="210.5,-219.5 210.5,-307.5 385.5,-307.5 385.5,-219.5 210.5,-219.5"/>
</g>
<!-- treasury_models_Remittance&#45;&gt;treasury_models_RemittanceType -->
<g id="edge3" class="edge">
<title>treasury_models_Remittance&#45;&gt;treasury_models_RemittanceType</title>
<path fill="none" stroke="black" d="M298,-207.09C298,-183.68 298,-157.46 298,-138.24"/>
<ellipse fill="black" stroke="black" cx="298" cy="-211.24" rx="4" ry="4"/>
<text text-anchor="middle" x="350" y="-158.6" font-family="Roboto" font-size="8.00"> remittance_type (remittance)</text>
</g>
<!-- treasury_models_SpecialTransactionProxy -->
<g id="node5" class="node">
<title>treasury_models_SpecialTransactionProxy</title>
<polygon fill="white" stroke="transparent" points="272.5,-406 272.5,-468 497.5,-468 497.5,-406 272.5,-406"/>
<polygon fill="#1b563f" stroke="transparent" points="274,-446 274,-467 497,-467 497,-446 274,-446"/>
<text text-anchor="start" x="310" y="-455" font-family="Roboto" font-size="8.00"> &#160;&#160;&#160;</text>
<text text-anchor="start" x="320" y="-455" font-family="Roboto" font-weight="bold" font-size="10.00" fill="white"> &#160;&#160;&#160;SpecialTransactionProxy &#160;&#160;&#160;</text>
<text text-anchor="start" x="276" y="-438.6" font-family="Roboto" font-size="8.00"> &#160;&#160;&#160;</text>
<text text-anchor="start" x="286" y="-438.6" font-family="Roboto" font-weight="bold" font-size="8.00">id</text>
<text text-anchor="start" x="294" y="-438.6" font-family="Roboto" font-size="8.00"> &#160;&#160;&#160;</text>
<text text-anchor="start" x="346" y="-438.6" font-family="Roboto" font-size="8.00"> &#160;&#160;&#160;</text>
<text text-anchor="start" x="356" y="-438.6" font-family="Roboto" font-weight="bold" font-size="8.00">AutoField</text>
<text text-anchor="start" x="394" y="-438.6" font-family="Roboto" font-size="8.00"> &#160;&#160;&#160;</text>
<text text-anchor="start" x="276" y="-425.6" font-family="Roboto" font-size="8.00"> &#160;&#160;&#160;</text>
<text text-anchor="start" x="286" y="-425.6" font-family="Roboto" font-weight="bold" font-size="8.00">remittance</text>
<text text-anchor="start" x="328" y="-425.6" font-family="Roboto" font-size="8.00"> &#160;&#160;&#160;</text>
<text text-anchor="start" x="346" y="-425.6" font-family="Roboto" font-size="8.00"> &#160;&#160;&#160;</text>
<text text-anchor="start" x="356" y="-425.6" font-family="Roboto" font-weight="bold" font-size="8.00">ForeignKey (id)</text>
<text text-anchor="start" x="417" y="-425.6" font-family="Roboto" font-size="8.00"> &#160;&#160;&#160;</text>
<text text-anchor="start" x="276" y="-412.6" font-family="Roboto" font-size="8.00"> &#160;&#160;&#160;</text>
<text text-anchor="start" x="286" y="-412.6" font-family="Roboto" font-weight="bold" font-size="8.00">transaction</text>
<text text-anchor="start" x="332" y="-412.6" font-family="Roboto" font-size="8.00"> &#160;&#160;&#160;</text>
<text text-anchor="start" x="346" y="-412.6" font-family="Roboto" font-size="8.00"> &#160;&#160;&#160;</text>
<text text-anchor="start" x="356" y="-412.6" font-family="Roboto" font-weight="bold" font-size="8.00">OneToOneField (transaction_ptr)</text>
<text text-anchor="start" x="485" y="-412.6" font-family="Roboto" font-size="8.00"> &#160;&#160;&#160;</text>
<polygon fill="none" stroke="black" points="272.5,-406 272.5,-468 497.5,-468 497.5,-406 272.5,-406"/>
</g>
<!-- treasury_models_SpecialTransactionProxy&#45;&gt;treasury_models_Remittance -->
<g id="edge5" class="edge">
<title>treasury_models_SpecialTransactionProxy&#45;&gt;treasury_models_Remittance</title>
<path fill="none" stroke="black" d="M318.41,-396.34C310.62,-388.91 303.76,-380.46 299,-371 289.94,-353 288.41,-331.02 289.64,-311.71"/>
<ellipse fill="black" stroke="black" cx="321.56" cy="-399.15" rx="4" ry="4"/>
<text text-anchor="middle" x="364" y="-364.6" font-family="Roboto" font-size="8.00"> remittance (specialtransactionproxy)</text>
</g>
<!-- note_models_transactions_SpecialTransaction -->
<g id="node8" class="node">
<title>note_models_transactions_SpecialTransaction</title>
<polygon fill="white" stroke="transparent" points="483,-253 483,-274 605,-274 605,-253 483,-253"/>
<polygon fill="#1b563f" stroke="transparent" points="483,-252.5 483,-273.5 605,-273.5 605,-252.5 483,-252.5"/>
<text text-anchor="start" x="487.5" y="-260.9" font-family="Roboto" font-size="8.00"> &#160;</text>
<text text-anchor="start" x="492.5" y="-260.9" font-family="Roboto" font-size="12.00" fill="white">SpecialTransaction</text>
<text text-anchor="start" x="595.5" y="-260.9" font-family="Roboto" font-size="8.00"> &#160;</text>
</g>
<!-- treasury_models_SpecialTransactionProxy&#45;&gt;note_models_transactions_SpecialTransaction -->
<g id="edge4" class="edge">
<title>treasury_models_SpecialTransactionProxy&#45;&gt;note_models_transactions_SpecialTransaction</title>
<path fill="none" stroke="black" d="M415.54,-401.97C426.93,-389.37 440,-374.98 452,-362 478.22,-333.63 509.12,-301.06 527.61,-281.66"/>
<text text-anchor="middle" x="518" y="-364.6" font-family="Roboto" font-size="8.00"> transaction (specialtransactionproxy)</text>
</g>
<!-- treasury_models_SogeCredit -->
<g id="node6" class="node">
<title>treasury_models_SogeCredit</title>
<polygon fill="white" stroke="transparent" points="612,-406 612,-468 864,-468 864,-406 612,-406"/>
<polygon fill="#1b563f" stroke="transparent" points="613,-446 613,-467 863,-467 863,-446 613,-446"/>
<text text-anchor="start" x="694.5" y="-455" font-family="Roboto" font-size="8.00"> &#160;&#160;&#160;</text>
<text text-anchor="start" x="704.5" y="-455" font-family="Roboto" font-weight="bold" font-size="10.00" fill="white"> &#160;&#160;&#160;SogeCredit &#160;&#160;&#160;</text>
<text text-anchor="start" x="615" y="-438.6" font-family="Roboto" font-size="8.00"> &#160;&#160;&#160;</text>
<text text-anchor="start" x="625" y="-438.6" font-family="Roboto" font-weight="bold" font-size="8.00">id</text>
<text text-anchor="start" x="633" y="-438.6" font-family="Roboto" font-size="8.00"> &#160;&#160;&#160;</text>
<text text-anchor="start" x="712" y="-438.6" font-family="Roboto" font-size="8.00"> &#160;&#160;&#160;</text>
<text text-anchor="start" x="722" y="-438.6" font-family="Roboto" font-weight="bold" font-size="8.00">AutoField</text>
<text text-anchor="start" x="760" y="-438.6" font-family="Roboto" font-size="8.00"> &#160;&#160;&#160;</text>
<text text-anchor="start" x="615" y="-425.6" font-family="Roboto" font-size="8.00"> &#160;&#160;&#160;</text>
<text text-anchor="start" x="625" y="-425.6" font-family="Roboto" font-weight="bold" font-size="8.00">credit_transaction</text>
<text text-anchor="start" x="698" y="-425.6" font-family="Roboto" font-size="8.00"> &#160;&#160;&#160;</text>
<text text-anchor="start" x="712" y="-425.6" font-family="Roboto" font-size="8.00"> &#160;&#160;&#160;</text>
<text text-anchor="start" x="722" y="-425.6" font-family="Roboto" font-weight="bold" font-size="8.00">OneToOneField (transaction_ptr)</text>
<text text-anchor="start" x="851" y="-425.6" font-family="Roboto" font-size="8.00"> &#160;&#160;&#160;</text>
<text text-anchor="start" x="615" y="-412.6" font-family="Roboto" font-size="8.00"> &#160;&#160;&#160;</text>
<text text-anchor="start" x="625" y="-412.6" font-family="Roboto" font-weight="bold" font-size="8.00">user</text>
<text text-anchor="start" x="643" y="-412.6" font-family="Roboto" font-size="8.00"> &#160;&#160;&#160;</text>
<text text-anchor="start" x="712" y="-412.6" font-family="Roboto" font-size="8.00"> &#160;&#160;&#160;</text>
<text text-anchor="start" x="722" y="-412.6" font-family="Roboto" font-weight="bold" font-size="8.00">OneToOneField (id)</text>
<text text-anchor="start" x="798" y="-412.6" font-family="Roboto" font-size="8.00"> &#160;&#160;&#160;</text>
<polygon fill="none" stroke="black" points="612,-406 612,-468 864,-468 864,-406 612,-406"/>
</g>
<!-- treasury_models_SogeCredit&#45;&gt;note_models_transactions_SpecialTransaction -->
<g id="edge7" class="edge">
<title>treasury_models_SogeCredit&#45;&gt;note_models_transactions_SpecialTransaction</title>
<path fill="none" stroke="black" d="M668.71,-401.98C653.52,-392.97 638.09,-382.51 625,-371 594.47,-344.16 567.83,-304.24 554.03,-281.68"/>
<text text-anchor="middle" x="679.5" y="-364.6" font-family="Roboto" font-size="8.00"> credit_transaction (sogecredit)</text>
</g>
<!-- django_contrib_auth_models_User -->
<g id="node9" class="node">
<title>django_contrib_auth_models_User</title>
<polygon fill="white" stroke="transparent" points="716,-253 716,-274 760,-274 760,-253 716,-253"/>
<polygon fill="#1b563f" stroke="transparent" points="716,-252.5 716,-273.5 760,-273.5 760,-252.5 716,-252.5"/>
<text text-anchor="start" x="720" y="-260.9" font-family="Roboto" font-size="8.00"> &#160;</text>
<text text-anchor="start" x="725" y="-260.9" font-family="Roboto" font-size="12.00" fill="white">User</text>
<text text-anchor="start" x="751" y="-260.9" font-family="Roboto" font-size="8.00"> &#160;</text>
</g>
<!-- treasury_models_SogeCredit&#45;&gt;django_contrib_auth_models_User -->
<g id="edge6" class="edge">
<title>treasury_models_SogeCredit&#45;&gt;django_contrib_auth_models_User</title>
<path fill="none" stroke="black" d="M738,-401.71C738,-365.34 738,-309.39 738,-281.51"/>
<text text-anchor="middle" x="769.5" y="-364.6" font-family="Roboto" font-size="8.00"> user (sogecredit)</text>
</g>
<!-- note_models_transactions_MembershipTransaction -->
<g id="node10" class="node">
<title>note_models_transactions_MembershipTransaction</title>
<polygon fill="white" stroke="transparent" points="794,-253 794,-274 940,-274 940,-253 794,-253"/>
<polygon fill="#1b563f" stroke="transparent" points="794,-252.5 794,-273.5 940,-273.5 940,-252.5 794,-252.5"/>
<text text-anchor="start" x="798" y="-260.9" font-family="Roboto" font-size="8.00"> &#160;</text>
<text text-anchor="start" x="803" y="-260.9" font-family="Roboto" font-size="12.00" fill="white">MembershipTransaction</text>
<text text-anchor="start" x="931" y="-260.9" font-family="Roboto" font-size="8.00"> &#160;</text>
</g>
<!-- treasury_models_SogeCredit&#45;&gt;note_models_transactions_MembershipTransaction -->
<g id="edge8" class="edge">
<title>treasury_models_SogeCredit&#45;&gt;note_models_transactions_MembershipTransaction</title>
<path fill="none" stroke="black" d="M782.72,-395.99C790.55,-388.06 798.32,-379.54 805,-371 825.4,-344.92 843.79,-311.46 855.15,-289.06"/>
<ellipse fill="black" stroke="black" cx="779.57" cy="-399.11" rx="4" ry="4"/>
<ellipse fill="black" stroke="black" cx="857.08" cy="-285.21" rx="4" ry="4"/>
<text text-anchor="middle" x="886.5" y="-364.6" font-family="Roboto" font-size="8.00"> transactions (_sogecredit_transactions_+)</text>
</g>
</g>
</svg>
