<svg version="1" xmlns="http://www.w3.org/2000/svg" width="1678.667" height="1678.667" viewBox="0 0 1259.000000 1259.000000"><path d="M652.1 9.6C618 101 575.3 192.4 528 275c-19.3 33.7-21.4 37.1-22.1 35.8-.3-.7-2.6-9.8-4.9-20.1-2.4-10.3-4.7-18.2-5.1-17.5-.9 1.6-5.9 22.3-14.4 59.3-3.7 15.9-9.4 38.3-12.6 49.7-8.4 29.7-10.9 42.4-11.6 60.3-.9 24.1 2.5 37.8 11.9 48.1 2.8 3.1 3.6 4.5 2.3 4-20.1-7.5-38.8-12.5-58-15.3-18-2.6-51.4-2.3-70.4.6-56.9 8.7-106.8 33.5-144.8 72.2-21 21.3-31.3 40.5-31.3 58.3.1 9.2 1.3 11.9 13.8 28.4 5.6 7.3 10.6 14.9 11.2 16.8 1.1 3.2.8 4.1-3 11.7-10.2 19.9-12.8 23.7-45.8 68.4-7.8 10.5-14.2 19.6-14.2 20.1 0 2.4 21.5 4.3 35.4 3.1 13.4-1.1 23.9-3.8 35.8-8.9 5.8-2.5 8.8-3.3 8.4-2.4-.3.8-5.9 15.4-12.6 32.4-6.6 17.1-12 31.5-12 32 0 1.5 3 1.2 12.4-1 18.2-4.2 40.2-12.3 57.9-21.2 4.3-2.1 8.2-3.8 8.6-3.6.4.2-4.5 23.7-11 52.3-6.5 28.6-11.9 52.1-11.9 52.3 0 .6 5-2.5 11.5-7.2 31.5-22.6 60.2-53.4 79.1-84.8 11-18.3 15.9-32.8 17.1-50.9 1.2-18.6-1.2-22.5-22.7-37.3-7.4-5.1-13.6-10-13.8-10.9-.2-.9 1.9-4.9 4.6-9 23.5-34.7 60.1-66.6 99.2-86.2 29.9-15 65.4-25.1 92.7-26.2 11.1-.5 12.5-.4 16.7 1.6 6 3 9 6.7 14.2 17.6 9.1 19.2 16.8 47.5 19.3 70.7 1.3 11.2 1.4 42 .2 49.1-1.5 9.3-4.3 8.9-17.3-2.7-7.5-6.7-10.2-9.9-13.2-15.5-3.7-7.1-5.8-9.1-9.5-9.1-3.4 0-4.2 3.1-2 7.9 1 2.4 1.9 5.8 1.9 7.7 0 3.3 2.8 7.4 5 7.4.6 0 1 1.3 1 2.9 0 1.6 1.3 5.7 2.9 9.1 6.8 14.3 4.2 26.4-7 32-4.6 2.4-11.6 2.6-14.7.5-1.2-.9-3.6-3.6-5.3-6.1-1.7-2.5-5.5-6.1-8.5-8-3-1.9-6.1-4.5-6.9-5.7-.8-1.3-2.2-6.3-3-11.2-.9-4.9-2.6-10.7-3.8-12.9-2.5-4.6-7.8-8.6-11.3-8.6-4.5 0-10.2-6.7-15.9-18.5-2.9-6-6.2-13.1-7.3-15.8-2.4-5.3-5.6-6.4-7.1-2.4-1.1 2.9.2 15.3 2.3 22.2 1.3 4.1 2.2 5.4 5.3 7 4.4 2.3 6.2 6.3 6.2 13.8.1 6.3 2.3 10.2 7.1 12.7 4.9 2.5 5.6 3.8 6.4 12.8l.6 7.3-3 1.7c-1.6.9-3.2 2.5-3.5 3.4-.7 1.9 2.2 10.5 8.9 26.5 6.2 14.7 8.2 24.3 6.6 31.7-1.4 7-4.8 11.5-14.8 20-16.3 13.8-20.2 24.5-18.2 51.3 1.4 19.2 1.2 36-.5 42.5-.8 3.1-3.8 11.4-6.7 18.5-4.6 11.4-5.2 13.6-5.2 20.3-.1 8.8 1.4 12.2 8.1 19.1l4.4 4.6-1 9.6c-2.6 23.5.1 86.1 5.4 123.3 3.2 21.8 4.8 29.8 8.6 43.3 3.7 12.8 15.1 45.6 17.2 49.8 2.1 4 7.9 9 19.2 16.4 23 15.2 51 25.1 86.5 30.6 16.2 2.4 54.7 2.4 71.5 0 23.7-3.5 45.1-9.4 66.2-18.2 26.5-11.1 33.9-20.1 45.1-54.1 11.4-34.3 20.8-78.8 24.7-116.9 3.7-35.8 3.9-81 .5-115.5-2.3-23.5-8.3-60.2-12.1-74.4-.6-2.2-1.2-9-1.3-15.1-.3-13-1.8-17.2-9-25.2-6.3-6.9-8.8-13.1-9.4-22.3-.9-15.4 4.7-28.5 22.3-52 14.2-19 18.5-25.9 18.5-29.7 0-6-7.4-8.4-12.5-4-1.4 1.2-4.5 5.1-6.8 8.6-3.7 5.6-4.8 6.6-8.9 7.8-3.4 1-5.8 2.6-9.4 6.6-7 7.8-11.7 14.2-17.1 23.7-2.6 4.7-5.3 8.5-6 8.5-.6 0-2.7-2.1-4.6-4.6-3.3-4.3-5.5-5.7-17.7-11.3-2.4-1.2-2.5-1.5-2.1-8.9.5-11.2-2.4-14.6-13.3-16.1-9.7-1.2-12.6-5.5-12.6-18.6 0-9.4-1.3-13.1-6.9-19.8-5-6-8.1-12.6-8.1-17.7 0-7.4 2.9-24.5 5.1-29.4 1.6-3.9 1.8-5.3.9-7-1.3-2.5-3.1-2.6-6.9-.7-3.5 1.8-4.8 4.9-6.2 13.9-1.6 11.1-3.8 18.7-7 24.8-3.1 5.7-12.3 15.8-13.5 14.6-1.3-1.3-4.4-16.5-5.5-27.2-1.1-10.4-.6-33.2.7-38.2l.6-2.3 2.5 2c3.9 3 8.8 2.6 12.4-1l3-3 3 3.5c3.1 3.5 10.4 6.5 15.8 6.5 4.4 0 9.9-2 13.1-4.6l3-2.6 1.1 2.9c2 5.4 7.7 9.4 15.1 10.8 3.1.6 4.7.2 9.5-2.6 3.1-1.8 7.4-4.8 9.3-6.5l3.6-3.3 6.5 1.5c3.5.8 10.7 2.8 15.9 4.4 71.8 22.1 151.5 19.6 222.5-7 7.4-2.8 17.1-6.8 21.6-9 4.6-2.2 9.1-4 10-4 1 0 5.8 5.2 11.7 12.7 5.5 7.1 11.5 14.2 13.3 16 8.1 7.6 18.7 6.5 39.5-4 11.2-5.6 30.7-17.3 38.1-22.9 6.4-4.9 23.8-24.7 22.6-25.8-.4-.4-10-1.9-21.3-3.4-23.8-3.1-25-3.3-25-4.6 0-.5 5.3-10.5 11.9-22.3 16.3-29.2 16.5-29.6 14.3-29.1-.9.2-12.3 2.2-25.2 4.4-12.9 2.2-24.5 4.2-25.7 4.5-2 .5-1.6-.7 3.7-11.8 6.1-12.7 10.4-23.7 14.5-36.7 3.4-10.8 5.7-20.1 5.1-20.7-.3-.3-10.8 6.7-23.3 15.4-26.5 18.7-35.1 24.3-36.9 24.3-.7 0-3.2-2.8-5.6-6.2-5.6-8-8.5-10-15.1-10.6-11.5-.9-20.1 3.2-56.6 27-55.6 36.5-94.3 55-135.6 64.8-18.6 4.5-51.8 10-64.1 10.7l-11.2.6-1.6-3.1c-.9-1.8-2.9-3.8-4.4-4.5-3.5-1.8-20.1-2.9-22.6-1.5-1.5.8-3 .2-7.8-3.2-7.9-5.6-15.5-9-20.1-9-2.1 0-6.3.9-9.4 2-6.6 2.3-10.2 2.5-10.9.7-.4-1.1 5.7-19.8 10.5-32l1.1-2.8 7.8 9.3c4.2 5.1 8.6 9.4 9.6 9.6 1.8.4 1.9-.1 1.3-6.4-.4-3.8-1-8-1.3-9.3-.6-2.2-.2-2 4.9 1.8 8.2 6.2 20.7 10.4 20.7 7 0-.6-1.6-3.7-3.5-6.9s-3.5-6-3.5-6.4c0-.3 2.7 1.2 6 3.5 5.4 3.6 19.6 9.6 20.6 8.7.2-.2-2.8-5.1-6.6-10.8-3.8-5.7-6.8-10.6-6.6-10.8.2-.2 2.6 1.2 5.3 3.1 7.3 5.2 16.6 9.6 25.1 11.8 4.1 1 7.6 1.8 7.8 1.6.1-.1-5.5-7.2-12.6-15.7s-12.9-15.8-12.9-16.2c-.1-.4 3.7 2.2 8.3 5.6 4.7 3.5 12.1 8.2 16.5 10.5 7.7 4 19.1 8.5 19.7 7.8.2-.2-4-5.7-9.3-12.3-5.3-6.5-11.2-13.9-13.2-16.4l-3.6-4.4 4 2.3c13.5 8 21.8 12.7 27.9 15.8 9.3 4.7 24.6 11.3 24.6 10.6 0-1.1-19.1-23.1-30.2-34.7-8.6-9.1-10.3-11.3-7.2-9.4 13.3 8.4 40 19.3 52.4 21.3l4.4.7-5.1-5.8c-2.8-3.3-8.6-9.3-12.8-13.4-4.2-4.1-8.5-8.7-9.6-10.2l-2-2.8 6.6 3c13 5.8 35.6 11.7 41.6 10.8 2-.2-1.6-3.3-18.6-16.2-22.6-17.1-24.1-18.4-21-17.1 9 3.8 25.7 8.7 33.5 10 12.4 2 36.1 2.1 34 .2-.8-.8-10.8-7.1-22.3-14.2-11.4-7.1-20.6-12.9-20.5-13.1.2-.1 3.7.5 7.8 1.4 5.4 1.1 13.1 1.6 27.5 1.6 17.1 0 21.5-.3 30.4-2.2 19.7-4.3 20.3-3.7-11-12.7l-27.4-8 12.5-.7c24-1.4 46.8-5.7 63.4-12.1 6.4-2.4 7.6-3.2 6.1-3.8-1.1-.5-16.8-3.8-34.9-7.4-18.1-3.5-33.1-6.7-33.4-7-.3-.3 1.1-.5 3.1-.5 6.3 0 31.8-4.8 45.2-8.5 16.4-4.5 32.4-10.9 48.9-19.4 11.9-6.1 12.7-6.6 9.5-6.9-3-.3-37 1.9-51.4 3.3-4.6.5-4.1.2 5.5-3.3 29.4-10.9 53.1-23.6 71.6-38.4 3.5-2.8 6.2-5.3 5.9-5.6-.4-.4-13 2.8-41.6 10.4-7 1.9-13.1 3.4-13.5 3.4-.5 0 5.4-3.1 13.1-6.9 31.6-15.5 55.9-35.5 76.5-62.9 4.4-5.9 8-11.1 8-11.5 0-.5-1.5.2-3.2 1.5-11.8 8.8-51.5 29.8-56.4 29.8-.3 0 3.6-3 8.5-6.8 34-25.6 61-57.9 80.2-96.2 9.5-18.8 9.5-18.8-6.8-2.9-17.2 16.8-30.9 27.9-48.3 39.4-11.6 7.7-32.6 19.5-34.5 19.5-.5 0 3.1-2.7 8.1-6.1 29.4-20.1 57-48.2 77.8-79.3 10.3-15.4 29.7-55 29.6-60.5-.1-1.5-.2-1.5-1.3 0-4.8 6.3-28.2 31-37.9 39.9-51.4 47.3-107.1 83.6-198.8 129.5-28.8 14.4-70.4 34.5-71.4 34.5-.2 0 .7-3.5 2.1-7.7 2.2-7 4.4-24.3 3.1-24.3-.3 0-10.4 12.6-22.4 28.1l-21.8 28.1-2.7-11c-4.2-17.2-14.4-35.2-25.8-45.5-3.5-3.2-4.5-3.5-12.7-4.2-12.2-1-22.2-3.7-33.1-9-5.1-2.4-9.3-4.2-9.3-3.9 0 .3 2.5 4.8 5.6 10 3.1 5.3 5.4 9.7 5.2 9.9-.2.2-7-1.3-15.1-3.5-8.1-2.1-14.7-3.4-14.7-2.9 0 2.5 3.2 8.2 6.9 12.2l4.1 4.4-11.2.5c-10 .4-12.3.8-20 4-4.9 1.9-8.8 3.3-8.8 3.1 0-.2 2.2-4.6 5-9.6 10.3-19.3 19.9-46.8 24-69.1 1.2-6.1 2.2-11.9 2.4-12.9.2-.9.1-1.7-.3-1.7s-6.5 6.7-13.5 15c-7.1 8.2-13 15-13.1 15-.1 0 2.8-6 6.6-13.3 11.9-23.1 20.3-48.2 24.4-72.7 1.6-9.2 3.4-49 2.2-49-.3 0-4.5 6.9-9.4 15.4-4.8 8.5-8.9 15.3-9.1 15.2-.1-.2 1.3-5.7 3.2-12.2 8.2-28.4 12.2-59.4 11.3-85.9-.3-8.8-1-17.3-1.5-18.9-.8-2.8-1-2.4-4.1 6zm4.5 110.1c-1.3 20.7-4.5 38.6-9.6 54.5-6.3 19.8-30.4 63.9-43.1 79.1-3 3.5-21.5 24.5-41.3 46.6-33.7 37.8-35.9 40.1-37.6 38.6-1.7-1.5-2-1.3-5.4 3.1-4.1 5.4-4.6 4.2-2-4.7 2.5-8.2 4.3-11.3 17.3-28.6 21.3-28.4 49.9-72 70.3-106.8 5.7-9.9 19.6-34.8 30.8-55.3 11.2-20.4 20.6-37.2 20.8-37.2.3 0 .2 4.8-.2 10.7zm414.7 69c-1.5 3.9-9.9 18.3-15.6 26.8-21.5 32.1-53.1 61.1-82.4 75.9-21.7 10.8-65.9 24.9-104.3 33.2-15.6 3.4-43.8 8.4-47 8.4-1.2 0-1.5-1.4-1.5-7.2l.1-7.2 17.9-5.6c32.9-10.3 52.6-18.6 93-39 17.1-8.7 39.8-19.5 50.5-24 34.5-14.5 55-28.2 80.5-53.9 4.9-5 9.1-9.1 9.2-9.1.1 0-.1.8-.4 1.7zM700 266.1c17.4 5.8 22.1 8.6 27.6 16.1l3.9 5.3.5-4 .6-4 3.2 5c4.7 7.2 9.8 21.5 7.6 21.5-1.9-.1-4.9-3.2-8.8-9.1-5.2-8-7.8-9.8-16.2-11.5-4.7-1-8.8-2.8-12.9-5.4-5.1-3.4-6.1-3.7-6.4-2.3-.2 1.1 1.5 3.4 4.8 6.3 4.9 4.3 5.1 4.7 5.1 9.7 0 6.3 1.4 7.6 3.4 2.9 1.2-3 4.1-5.6 6-5.6.4 0-.5 1.7-1.8 3.7-3.2 4.9-4 8.2-2.7 11.6 2.2 5.7 8.5 6 14.6.6 2.2-2 4.1-2.9 5.2-2.5 1.4.6 1.3 1-.7 3.1-3.3 3.5-11.7 7.5-15.7 7.5-1.9 0-5.6-1.1-8.3-2.5-5.8-2.9-6.8-3-9.2-.8-3.9 3.6-1.6 7.7 9.6 16.7l4.8 3.9-6.2 6.1c-5.9 5.8-9.8 11.8-12.5 19.6l-1.3 3.5-1.1-2.9c-.9-2.2-1.4-2.6-2.4-1.7-2.4 1.9-9.8 17.9-13.1 28.1-1.8 5.5-3.6 9.7-3.9 9.3-1.3-1.2-.7-22.1.8-29.9.8-4.3 1.3-7.9 1.1-8.1-.7-.7-5.5 8.8-9 17.6-3.4 8.3-9 26.2-11.7 36.8-2.3 9.5-3.2 6.1-2.5-9.5.7-16 2.7-31.3 5.5-43.5 2.2-9.5 1.9-9.3-8.8 5.2-8.7 11.9-11 15.3-19.4 29.6-6.7 11.3-6.7 11-2-8.5 3.4-14.4 9.3-29.2 15.2-38.1 3.3-5 4.6-7.7 3.9-8.4-1.4-1.5-22.8 21.1-31.3 33.1-7.9 11.1-15.6 19.5-16.2 17.7-1.2-3.4 13.7-29.4 22.6-39.7 4-4.6 4.2-5.1 2.5-6.3-1.7-1.2-1.6-1.6 1.9-5.1 4.2-4.3 4.5-5.2 1.7-5.2-1.1 0-3.1 1.7-4.9 4.3-5.5 8.1-16.6 16.3-21.1 15.5-3.1-.5 30.6-37.8 40.9-45.1 4.4-3.3 8.1-6.3 8.1-6.7 0-1.7-2-2.1-5.5-1.1-3.2.9-3.5.8-3.5-1.2 0-2.9 3.4-8.3 6.1-9.7 1.2-.7 7.4-1.6 13.8-2.2 11.8-.9 16.1-1.9 16.1-3.8 0-.5-3.1-2.6-7-4.5-6.8-3.4-8.8-5.5-5.2-5.5.9 0 7.5.7 14.6 1.5 7.1.9 13.1 1.3 13.4 1.1.2-.3-2.4-3.5-5.8-7.1-3.5-3.6-5.7-6.5-4.9-6.5.8 0 8.4 2.3 16.9 5.1zm-60.1 23.6c-5.3 14.1-18.9 33.7-37.2 54-7 7.7-10.7 11-15.2 13.3-6.5 3.3-62.5 24.3-63.2 23.7-.2-.2.1-1.7.7-3.2 1.1-3 .5-6.5-1.2-6.5-.6 0-2.6 1-4.5 2.1-4.2 2.6-5.3 1.8-2.7-1.9 2.3-3.2 9.1-7.6 26.4-17.4 21.7-12.2 43.3-26.7 70.3-47 14.4-10.9 26.5-19.8 26.9-19.8.4 0 .3 1.2-.3 2.7zm88.1 9.8c0 .8-.7 1.5-1.5 1.5s-1.5-.7-1.5-1.5.7-1.5 1.5-1.5 1.5.7 1.5 1.5zm251.6 41c-5.6 4.9-30.1 16.8-44.1 21.4-21.4 6.9-40.5 9.8-71 10.8-15.8.5-55.1-1-56.3-2.1-.1-.2.2-1.5.7-2.9.6-1.6.7-3.8.1-5.7-1.5-5.3 3-6.5 31.5-8.4 91.4-6.2 112.1-8.5 135-15 7.6-2.2 8.4-1.8 4.1 1.9zm-384.1 54.4c-2.7 2.6-27 17.7-34 21.1-11.6 5.8-18.7 7.3-31.9 6.8-13.6-.4-14.8-1-10.9-5l2.8-3.1-5.7.7c-3.2.3-5.8.2-5.8-.3 0-2 4.3-6 8-7.5 2.3-.9 8.7-2.1 14.3-2.7 12.2-1.2 21.7-2.8 43.7-7.3 17.7-3.7 21-4.1 19.5-2.7zm201 1.5c3.3.9 11.9 2.3 19 3.1 23.3 2.6 28.3 3.5 50.2 9.1 19.5 4.9 40.2 9.1 53.8 10.9 6.7.9 4.7 1.9-10.6 4.9-26.3 5.3-53.4 6.4-72.4 3.2-8.6-1.5-48.4-13.9-53.8-16.8-1.7-.9-1.7-1.1.3-4.2 1.1-1.8 2-4.7 2-6.4 0-1.7.3-3.8.6-4.7.7-1.8 1.1-1.8 10.9.9zm18.2 57.3c48.3 27.7 48.4 27.8 43.9 28.1-5.5.4-18.3-1.9-30.3-5.4-19.4-5.6-36.7-14.5-66.2-33.9-9.6-6.3-10.3-7-8.5-8.2 1-.7 3.9-2.9 6.4-4.7 2.5-1.9 4.9-3.5 5.3-3.5.5-.1 22.7 12.4 49.4 27.6zM519.3 448c14.5 4.2 32.4 7.7 47.9 9.6 7.3.8 13.5 1.7 13.8 2 .9 1-5 5.1-8.9 6.3-6.8 2-27.2 5.1-33.7 5.1-8.4 0-15.6-1.6-23.2-5.2-6.5-3-8.3-5.1-6.3-7.1 2.5-2.5.9-3-7.4-2.4-4.7.3-8.5.3-8.5-.1 0-1.6 11.7-11.1 13.7-11.2 1.3 0 6.9 1.3 12.6 3zm233 18.4c10.6 7.8 24.2 18.7 30.2 24.1 6.1 5.4 16.1 13.9 22.2 18.8 6.2 5 11.1 9.2 10.9 9.5-.2.2-5.2-1.3-11.1-3.2-12.5-4.2-26.5-11.2-39.2-19.6-11.5-7.5-44.7-33.7-45.1-35.6-.2-.7 1.6-3.6 4-6.4 4.1-4.8 4.3-4.9 6.6-3.4 1.3.9 11 8 21.5 15.8zM722.1 498c37.9 39.7 39.4 41.3 38.1 41.8-1.9.6-13.4-5.2-22-11-8.3-5.7-30.6-26.9-43.5-41.2l-8-8.9 3.9-1.2c2.2-.6 4.9-1.7 5.9-2.3 1.1-.6 2.3-1 2.6-.9.3.1 10.7 10.8 23 23.7zM392 482c40.6 3.5 75.2 13.7 111.5 32.9 14.4 7.6 21 11.8 57.5 35.8 52.9 34.7 72.5 45 103.7 54.3 6.5 1.9 7.4 2.6 9 5.8 2.2 4.5 5 5.1 10 2.2l3.6-2.1-.7 5.1c-.7 5.6.3 6 2.4 1 1.3-3.1 2.4-3.7 3.5-2 .9 1.4 4.8 1.2 6.4-.3 1.1-1 1.3-1 .7 0-1 1.9.5 1.6 1.9-.3 1-1.4 1.3-1.3 2.8 1 2.2 3.3 7.1 3.6 8.7.5.7-1.1 1.4-1.8 1.7-1.6.2.3-.3 1.9-1.2 3.7-2.4 4.7-1.2 4.7 2.5 0 2.3-2.9 3.6-3.8 4.3-3.1 1.5 1.5 5 1.4 6.5-.1.9-.9 1.2-.8 1.2.5 0 3.1-4.6 6.7-8.5 6.7-2.3 0-3.8.5-4.2 1.6-1.2 3.3-2.8 2.9 58.4 11.9 28.8 4.3 38.1 5.2 26.1 2.7-23.5-5-41.5-8.4-53.8-10.1-21.5-3.1-21.7-3.1-19.8-4.2.8-.5 10-1.8 20.4-2.9 10.4-1.1 22.3-2.7 26.4-3.5 8.6-1.8 24.4-6.4 23.8-7.1-.3-.2-5.8.7-12.4 2.1-15.7 3.2-30.6 5.3-43 6.1l-10.1.7.5-3.2c.6-4.2 2.2-4.8 20.7-7.2 72.8-9.6 140.7-35.3 200-75.7 7.7-5.3 17.2-11.8 21.2-14.4 13.9-9.4 25.8-12.5 30.8-7.8 3.5 3.3 22.8 38.7 41.5 76 8.3 16.7 8.3 15.6.2 15.2-6.6-.4-6.8-.3-22.2 7.3-46.8 23.2-87.4 36.1-139 44.2-15.9 2.4-55.2 2.4-73 0-26.7-3.7-82.5-16.3-84.5-19-.8-1.1-1.6-1.3-2.6-.6-2 1.3-6.7 1.1-9.2-.3-1.2-.7-7.5-1.5-14.2-1.8l-12-.5-.5-3.3c-.5-3.6-2.7-4.1-2.2-.5.4 3.2-1.6 3.8-4.3 1.3-1.8-1.7-4.3-2.4-10.3-3.1-9.6-1.1-24.5-4.8-35.5-9-4.5-1.7-22.4-10-39.7-18.4-43.2-21-57.4-25.5-80.9-25.5-30.9 0-75.7 13.2-109.5 32.1-48.5 27.3-88.8 68-113.4 114.6-3.7 7.1-7.4 12.9-8.3 13.1-1.9.3-21.2-13.6-36.1-25.9-23.5-19.6-44-41.3-63.8-67.6-13.5-18.1-16.1-22.7-16.2-29.3-.1-13 21.6-45.2 45-67 48-44.5 112.6-66.6 178.2-61zm119.5 7c10.9 6.3 30.1 15.1 40.4 18.5 6.1 2 5.7 2.5-3.4 4.8-9.2 2.3-22.3 3.1-26.6 1.5-5.3-1.9-28.9-17.1-28.9-18.6 0-.7 2-2.1 4.5-3.2 3.2-1.4 4.5-2.5 4.5-4 0-1.8-.6-2-7.5-2-7.8 0-9.5-1.1-4.7-2.9 5.3-2 10.2-.7 21.7 5.9zm557.9 14.6c-2.5 7.1-8.2 21-12.5 30.8-4.3 9.9-7.9 18.8-7.9 19.9 0 1.8.5 1.9 6.8 1.4 7.1-.7 26.7-4.5 37.3-7.2 3.3-.9 6.5-1.5 7-1.3.5.2-4.7 10.1-11.6 22-7 12.1-12.5 22.8-12.5 24.2 0 1.8.9 3 2.8 4 2.9 1.5 24.1 5.2 35.5 6.2l6.9.6-2.4 2.5c-4.8 5.2-20.7 17.9-30 24-15 9.9-40 21.3-46.5 21.3-3.6 0-3.2-1 9.5-24 2.3-4.2 4.8-10.3 5.7-13.8 2.7-10.5 1.7-13.5-17-50.8-12-23.8-16.6-33.9-16.3-35.9.2-2.3 1.9-3.6 10.8-8.7 13-7.5 20.2-12.6 30.5-21.6 4.4-3.8 8.1-6.8 8.3-6.7.2.1-1.8 6.1-4.4 13.1zm-388.4 1c0 .8 3.2 4.9 7.2 9.2 6.6 7.1 29.3 36.5 31.8 41.3 1.1 2 1.1 2-2.2.3-10.4-5.2-33.4-25.8-36.7-32.7-2-4.3-2.5-7.7-2.2-16 0-2.9.5-4.6 1.1-4.2.6.3 1 1.3 1 2.1zm-6.7 41.6c1.4 1.8 3.3 4.9 4.2 6.8 1.9 3.7 4.7 13.2 4 13.8-.4.4-9.5-12.9-11.8-17.5-1.6-3-1.4-6.3.4-6.3.4 0 1.9 1.5 3.2 3.2zm374.2 62c2.4 1.9 2.7 2.6 2.3 6.9-.6 6-7.4 19.9-16.8 33.9-.8 1.2-1.8.6-5.5-3.5-5.8-6.3-18.9-23.4-18.4-23.9.2-.2 3.9-1.8 8.2-3.5 4.3-1.7 11.7-5.1 16.5-7.6 4.8-2.4 9.2-4.5 9.8-4.5.6 0 2.4 1 3.9 2.2zm-328 15.8c.3.5-.1 1-1 1s-1.3-.5-1-1c.3-.6.8-1 1-1 .2 0 .7.4 1 1zm0 14c-.3.5-1.3 1-2.1 1s-1.4-.5-1.4-1c0-.6.9-1 2.1-1 1.1 0 1.7.4 1.4 1zM668 656.7c-1.1 2.1-2 5.6-2 7.8-.1 2.2-.7 6.9-1.5 10.5-1.8 8-1.8 16.4-.2 21 .7 2 3.4 6.1 6 9.3 5.3 6.6 6.6 10.4 7.6 23.6 1.2 15.5 4.3 19.2 16.2 19.7 3.8.1 7.6.8 8.4 1.4 1.1.9 1.4 3.4 1.2 10-.2 10.2 1.1 12.6 7.5 13.6 4.9.8 8.3 3.5 10.9 8.7 1.2 2.3 3 5.2 4.2 6.4l2 2.2-5.4 5.6c-6.4 6.7-12 10.5-15.3 10.5-1.3 0-4.3-1.6-6.6-3.5s-5-3.5-6-3.5c-2.7 0-7.8 4.7-10.1 9.2-2.5 4.8-2.7 4.7-10.7-7-10.5-15.3-20.2-36.5-28.1-61.4-9.8-30.7-9.7-30.1-4.8-32.1 5.7-2.4 15.2-15.7 18.6-26.1 1.2-3.4 2.7-10.2 3.4-15.3 1.3-8.6 3.5-14.3 5.7-14.3.6 0 .1 1.7-1 3.7zm-443.9 33.4c12.9 12.8 26.2 24.2 41.4 35.6 13.8 10.4 16.6 11.7 24.5 11.8 5.9 0 7.3-.4 15.5-4.9 19-10.5 23.2-11.8 29.7-9.6 14.3 5 12.4 27.8-5.2 63.5-7.5 15.1-22.9 39.4-32.7 51.5-6.8 8.4-21.3 22.6-31.8 31.3-7 5.8-19 12.5-20.2 11.4-.3-.4 1.7-9.1 4.5-19.4 9-32.9 19.2-75.4 19.2-79.9 0-1.7-.6-2.4-1.9-2.4-1 0-8.8 3.3-17.2 7.4-8.5 4.1-19.8 9.1-25.3 11.1-10.5 3.9-34.7 10.8-35.3 10.1-.3-.2 2.6-7.3 6.3-15.8 3.7-8.4 9.8-23.4 13.5-33.3 6.7-17.7 6.7-18 4.4-18.3-1.2-.2-7.1 1.7-12.9 4.2-19.3 8.3-35.9 11.3-55.6 10.2-6.3-.4-11.6-.9-11.8-1.1-.2-.2 3.1-4.4 7.4-9.2 21.9-24.4 39.3-49.6 51.6-74.6l4.3-8.9 7.9 8.9c4.4 4.8 13.2 14 19.7 20.4zm233.8 15.2c2.4 2.1 5.1 3.7 6.6 3.7 7.3 0 11.5 6.4 13.9 21.1 1.6 10.1 3.3 13.2 8.6 16.4 1.9 1.1 6 4.8 9.3 8.2 6 6.3 8.5 7.6 16.7 8.8 8.8 1.4 12 4.3 17.4 15.7 5.6 11.8 12 15.3 19.5 10.7 4.7-2.9 7.3-1.5 11 5.9 4.9 9.7 9.3 12.7 44 29.9l31.6 15.7 9.5.1c8.4 0 10.2-.3 15.5-2.8 7.6-3.5 15.1-10.8 22.5-21.8 6.9-10.2 10.6-12.5 14.3-9.1 3.1 2.9 7.5 4.4 11.1 3.7 9.2-1.9 23.8-17.4 38.2-40.7 8.7-14.1 13.5-19.3 18.8-20.3 6.3-1.3 6.8-1.7 10-8.8 4.7-10.2 9-13.3 11.9-8.6 1.7 2.8-.9 7.2-9.5 16.1-10.7 11.1-19.7 23.2-24.6 33.1-6.5 13-7.7 17.8-7.7 29.7 0 9.3.3 11.2 2.6 16 1.4 3 5.3 8.6 8.7 12.3 10.9 12.3 11.6 22.2 4 53-4 16-4.3 18.1-4.2 30.7 0 12.5.4 15.2 5.3 37.5 5.5 25.5 7.2 38.6 5.2 42.3-2.8 5.2-9.7 3.2-14.3-4.2-6.9-11-7.5-21-2.9-51.3 4.3-28.3 4-37.8-1.7-48.8-2.6-5.1-11-13-16.5-15.5-9.9-4.5-25.9-1.6-34.5 6.3-8.2 7.6-10 13.4-11.2 36.2-1.1 19.8-2.6 26.5-12.4 54.8-10.4 30-12 37.5-12.1 54.7 0 19 1.7 24.6 12 40.1 8 12 9 15.2 6 20.9-1.8 3.6-9 6.5-13.7 5.6-7.9-1.5-14.6-9-16.8-18.9-1.8-8.4-2.3-26.4-1.1-38.2.7-6.1 3.2-22 5.7-35.5 7.7-41.6 9.3-57.1 7.5-71.7-2-16.1-5.9-25.6-12.5-30.1-4.3-2.9-10.3-3.9-31.3-5.2-38.7-2.2-72-8.5-112.1-20.9-8.6-2.7-18-5.2-20.8-5.6-10.9-1.4-18.8 3.6-24.2 15.3-7.3 15.8-9 32-5.2 51.4 2.5 12.7 2.5 19.1.1 24.3-2.8 6.2-7.3 9.5-12.8 9.5-3.9 0-5-.5-7.8-3.5-4-4.1-5.6-10.5-4.4-16.9.4-2.5 3.3-9.4 6.3-15.4 8.5-17 9-19.6 8-39.7-1.4-30.5-1.1-42.1 1.3-50 2.9-9.2 7.2-15.8 13-19.8 13-9 17.2-15.6 18-28.9.7-11.2-1.2-18.3-9.3-34.4-7.4-14.8-7.8-17.3-2.5-18.6 3-.8 3.2-1.2 2.6-3.6-.3-1.5-.9-6.3-1.3-10.7-.8-9.3-2.7-13-7.2-14-4.7-1-6.6-4.4-7.3-12.9-.7-9-1.4-10.5-6.4-13.1-4.9-2.6-6.4-5.9-7-15.8l-.4-8.2 7.4 15c5.5 11.2 8.5 16 11.6 18.8zm65.5-5.3c2.2 6 9.4 14.3 19.4 22.2 5.5 4.4 7.2 5.3 10.9 5.3 2.3.1 4.5.3 4.7.6.6.5-1.9 10.9-3.6 15.1-1.2 3.2-2 3.4-5.3 1.2-4.4-2.8-6.7-1.6-9.3 5.1-5.3 13.5-7.4 17.5-9.4 17.5-1 0-2.3-1.1-3-2.4-.9-2.1-.6-3.2 2-7.3 3.8-6 5.2-11.1 5.2-18.9 0-5-.6-7.4-3.6-13.3-2.6-5.2-3.5-8.1-3.2-10.8.3-3.4 0-3.9-3.2-5.4-3.1-1.5-3.6-2.2-4.1-6.5-.3-2.7-.9-5.7-1.4-6.8-.6-1.4-.5-1.8.6-1.4.8.2 2.3 2.8 3.3 5.8zm-205.3 9.7l9.9 7.8-4.9.6c-4.9.7-8.5 2.3-18.7 8.8-5.9 3.7-10.6 4.5-11.2 1.9-.2-1 .7-4.2 2.1-7 2.6-5.7 11.3-19.8 12.3-19.8.3 0 5 3.5 10.5 7.7zm233.2 44.8c-.3 4.1-12.1 27.7-13.6 27.2-.6-.2-1.8-2-2.6-4-1.3-3.6-1.3-4 3.3-13.6 2.5-5.4 4.6-10.1 4.6-10.4 0-.3.5-1.8 1-3.2l1-2.7 3.3 2c2.5 1.5 3.2 2.5 3 4.7zm49.7 11.2c0 6.5 3.5 36.8 5 44.4 1.2 5.6 1.8 10.4 1.5 10.7-.6.7-10.2-3.7-11.5-5.4-.7-.7-.5-3.6.6-8.5.9-4.2 1.8-14.8 2.1-24.7.3-9.4 1-17.2 1.4-17.2.5 0 .9.3.9.7zM571.8 787c-.1 7.7-.7 14-1.2 14-.9 0-2.3-1.5-5.2-5.7-1.4-2-1.3-2.9 2.2-12.2 2-5.6 3.9-10.1 4.1-10.1.2 0 .3 6.3.1 14zm65.3 11.7c3.6 10.4 9.5 21.5 15.9 29.8 2.2 2.8 4 5.6 4 6.2 0 1.4-12 3.7-13.1 2.6-.7-.7-11.9-45.3-11.9-47.6 0-.4.4-.7.9-.7s2.4 4.3 4.2 9.7zM476 888.5c1.5 1.8.6 4.6-2.5 7.5-4.6 4.3-8 .2-4.5-5.5 2.3-3.7 4.9-4.5 7-2zm116.4 30.7c1.4 2.4-1.9 7-4.7 6.6-3-.4-3.4-4.1-.7-6.8 2.3-2.3 3.8-2.3 5.4.2zm38 1.4c4 1.6.3 8.4-4.6 8.4-2.4 0-2.8-.4-2.8-2.9 0-2 .8-3.5 2.2-4.5 2.5-1.8 3-1.9 5.2-1zm142.9 53.5c.7 2.6-.8 7.2-1.6 4.9-1.6-4.5-1.7-7-.3-7 .7 0 1.6.9 1.9 2.1zm-187.9 32.5c3.5 1.3.6 7.4-3.5 7.4-1.5 0-1.9-.7-1.9-3.3 0-4.6 1.4-5.6 5.4-4.1zm44.1 5.8c.8 2.4.6 3.1-1.4 4.7-2.9 2.4-4.3 2-5.5-1.4-.8-2.1-.6-3.1.9-4.7 2.4-2.7 4.7-2.2 6 1.4zm-165.7 110.9c.2 1.8-.2 2.9-1.3 3.4-2 .7-3.5-1.2-3.5-4.5 0-1.9.5-2.3 2.3-2 1.6.2 2.3 1.1 2.5 3.1zm290.6 12.9c-1.3 2.3-3.7 4.8-4.6 4.8-1.2 0-1-3.4.4-4.8 1.6-1.6 5.1-1.6 4.2 0zM585 1154.5c1.1 1.3 1 2.1-.7 4.3-2.8 3.7-5.1 4-5.9.6-.6-2.1-.2-3.1 1.6-4.6 2.7-2.2 3.4-2.2 5-.3zm40.6 5c.8 2.1-2.2 6.5-4.4 6.5s-4.2-1.9-4.2-4c0-.9.5-2.1 1.2-2.8 1.7-1.7 6.7-1.5 7.4.3zm-143.6 42c0 2.8-2.5 4.4-4.2 2.7-1.5-1.5.1-5.2 2.3-5.2 1.4 0 1.9.7 1.9 2.5zm256.8 9.7c.3 2.8-2 5.3-4.3 4.4-2-.7-1.9-3.5.2-5.8 2.1-2.4 3.7-1.8 4.1 1.4zM584 1239.5c0 3.2-2.5 5.1-4.5 3.5-2-1.7-1.9-4.7.2-5.8 2.4-1.4 4.3-.4 4.3 2.3zm38.4-.6c.8 1.3-.3 3.8-2 4.5-1.9.7-4.4-.3-4.4-1.8 0-2.8 5.1-4.9 6.4-2.7z"/><path d="M384 507.4c-5.5 1-6.5 1.5-6.4 3.1.1 1.1 2.2 13.5 4.7 27.5s4.7 27.1 4.9 29c.3 3.4.4 3.5 4.3 3.4 7.8-.1 11.5-1.3 11.5-3.6 0-1.8-.4-2-3.5-1.5-2.7.4-3.7.2-4.4-1.1-1.3-2.5-9.4-50-8.8-51.6.3-.7 2-1.6 3.7-1.9 2.2-.5 3.1-1.2 2.8-2.4-.4-2.1-1.1-2.2-8.8-.9zM407.8 512.7c-4.3.2-7.8.8-7.8 1.3 0 .6 1.1 1 2.5 1s2.8.6 3 1.2c.2.7.9 8.9 1.5 18.2.9 15.3.9 17.1-.6 18.8-1 1-1.5 2-1.3 2.2.6.4 27.9-1.2 29.6-1.8.8-.4 1.3-2.3 1.3-5.6 0-5.9-1.3-6.5-2.6-1.3-1.1 4.4-2.7 5.1-12.5 5.2l-6.7.1-.5-4.3c-.4-2.3-.9-10.6-1.3-18.3l-.6-14.2 3.1-.7c1.7-.4 2.9-1.1 2.5-1.6-.3-.5-.8-.8-1.2-.7-.4.1-4.2.4-8.4.5zM447.2 519.2c.2 1.5 1 2.3 2.3 2.3 1.3 0 2.1-.8 2.3-2.3.3-1.8-.1-2.2-2.3-2.2-2.2 0-2.6.4-2.3 2.2zM446 527.5l-4.5 1.2 2.9 1.2c2.9 1.2 2.9 1.2 2.2 7.9-.3 3.7-.6 7.9-.6 9.4 0 2.1-.5 2.8-2 2.8-1.1 0-2 .4-2 1s2.9 1 6.8.9c5.8 0 6.4-.2 4.3-1.2-2.3-1.1-2.4-1.3-1.9-12.9.3-6.5.2-11.8-.1-11.7-.3.1-2.6.7-5.1 1.4zM469.6 531.1c-4.7 3.7-3.3 8 3.6 11.5 2.7 1.4 5.1 3.1 5.5 4 .8 2.2-1.6 4.4-4.9 4.4-4.3 0-6.8-1.7-6.8-4.5 0-1.4-.4-2.5-1-2.5-.5 0-1 .6-1 1.2 0 .7-.3 2.3-.6 3.4-.5 1.7.1 2.4 2.7 3.3 6.8 2.3 14.3.3 15.5-4.3.9-3.6-.9-5.9-6.6-8.6-4.4-2.1-5.1-2.7-4.8-4.9.2-2 1-2.7 3-2.9 3.6-.4 6.8 1.4 6.8 3.8 0 2.9 1.7 2.4 2.3-.6.4-2.2 0-2.8-2.9-4-4.6-1.9-7.7-1.8-10.8.7z"/><path d="M516 529.9c0 .6.6 1.1 1.4 1.1.8 0 1.6.5 1.8 1.1.2.7-.9 7.7-2.4 15.8-1.5 8-2.7 14.7-2.8 14.8 0 .2-.9.3-2 .3s-2 .4-2 1c0 1.2 6.9 2.5 8 1.4.5-.5 1.8-5.8 2.9-11.8 1.1-6 2.2-11.1 2.5-11.3 1-1.1 28.5 15.3 50.3 29.9 15.2 10.2 20.4 14.3 15.7 12.4-29.2-12-49.8-16.5-78.9-17.3-20.1-.5-33.9.7-53.5 4.7-9.9 2.1-22.4 5.9-21.7 6.6.2.3 4.4-.5 9.2-1.6 15.5-3.6 38.6-7 52-7.6 32.5-1.6 63.6 6.5 123.9 32.3 30.9 13.2 36.8 15.3 43.7 15.3 9.8 0 5.3-2.8-17.2-10.5-26.1-9-37.5-15.1-73.1-38.6-12.8-8.5-27-16.9-35.5-21.1l-14.3-7v-4.3c0-4.8-.1-5-4.7-6-2.1-.4-3.3-.3-3.3.4z"/><path d="M498 532.6c-.6 1.4-1 3-1 3.5s-1 .9-2.2.9c-2 .1-2.1.2-.6 1 1.6 1 1.6 1.4-.3 6.7-2.7 7.9-2.5 11.1.6 11.9 1.4.3 3.3.3 4.2-.1 1.6-.6 1.6-.8-.4-1.6-2.7-1-2.8-2.5-.6-9.6 1.4-4.6 1.9-5.2 3.7-4.7 3.3 1 3.8 1 4.3-.2.2-.6-1-1.4-2.7-1.7l-3-.7 1.5-3.6c1.9-4.6 1.9-4.4-.5-4.4-1.3 0-2.4 1-3 2.6zM994.3 543c-4.8 2.9-6.6 7.2-6 14 .5 6 5.1 17.3 9.4 22.8 5.1 6.8 13.3 7.8 19.2 2.3 5.5-5.2 5.1-14.3-1.3-27.7-5.8-12.2-13.4-16.3-21.3-11.4zm9.7 3.6c4.3 3.7 12 19.8 12.7 26.7.5 4.7.3 5.6-1.8 7.5-5.3 5.1-11.2.7-18-13.3-5.1-10.6-6.2-18.2-3-21.4 2.8-2.8 6.3-2.7 10.1.5zM349.7 545.5c-4.5 1.5-7 3.6-9.8 8.1-1.6 2.6-1.8 3.7-.9 5.4 1.6 3.1 3 2.4 3-1.5 0-3.8 2.3-6 7.7-7.1 2.5-.5 3.7 0 6.3 2.3l3.2 2.9-5.6 4.3c-6.1 4.7-9.6 9.5-9.6 13.2 0 3.6 3.6 8.8 6.5 9.5 5 1.2 8.7-.7 11.9-6.4 3.3-5.7 4.1-6.2 5.1-3.2.8 2.5 1.4 2.5 7-.4 4.5-2.2 4.9-4.5.6-3.1-1.6.5-2.8-1-7.1-9.4-7.5-14.3-11.1-17.2-18.3-14.6zm12.8 17.4c2 4.5 1.6 7.5-1.6 11.4-4 5.2-10.9 2.5-10.9-4.1 0-2.9.8-4.3 4.6-7.9 2.6-2.3 5-4.1 5.3-3.8.4.2 1.6 2.2 2.6 4.4zM963.3 560c-5 3-6.5 5.9-5.2 10.3 1.1 4 3.2 5.1 2.8 1.4-.4-3.5.9-6.3 3.7-7.5 3.7-1.7 6-1.5 8.9 1.1 4.4 3.7 4.3 8.3-.3 22.5-2.2 6.7-3.7 12.4-3.3 12.6.6.4 22-9 23.4-10.3.4-.4.1-1.5-.6-2.5-1.2-1.6-1.8-1.4-10.1 2.3-4.8 2.3-8.6 3.5-8.3 2.8 2.3-6.1 6.7-21.2 6.7-23.3 0-9.1-9.7-14.3-17.7-9.4zM309.2 570.1c-5.1 2.6-6.9 4.9-7.8 10.6-.8 5-1.5 5.3-4.1 1.8l-1.8-2.5-4.2 5.7c-4.5 6.1-4.8 8.3-.6 5.6 2.6-1.7 2.6-1.7 6.2 2.3 2 2.3 6.2 7.6 9.5 11.8l5.9 7.7-2.3 2.4c-1.2 1.3-1.9 2.8-1.6 3.4.5.8 10.8-6.4 16.5-11.5.1-.1 0-.7-.4-1.3-.4-.7-1.4-.5-3 .5-1.3.9-2.9 1.4-3.4 1.2-.5-.1-4.1-4.3-8-9.2-6.1-7.6-7.1-9.4-7.1-12.8 0-7.9 8.9-12.8 15.2-8.4 1 .7 5.2 5.6 9.4 10.9 4.1 5.4 8.1 9.7 8.7 9.7 1.6-.1 10.4-7.7 9.6-8.4-.3-.3-1.9 0-3.7.6-1.7.7-3.3 1-3.5.8-.2-.3-3.8-4.8-8.1-10.1-7.1-9-11.9-12.9-15.8-12.9-.7 0-3.2 1-5.6 2.1zM941.4 573.4c-4.3 1.9-6.4 5.3-6.4 10.3 0 4.8 3.2 14.1 6.7 19.5 4.5 6.7 11.9 7.4 16.9 1.5 2.4-2.8 2.6-3.7 2.1-8.8-.6-7.3-5.1-17.1-9.4-20.9-3.7-3.3-5.3-3.6-9.9-1.6zm6.7 3.7c3 3 8.8 16 9.5 21.1 1.1 8.3-5.5 11.1-10.8 4.7-3.2-3.8-8.8-17.5-8.8-21.5 0-5.8 6-8.4 10.1-4.3zM914.4 585.2c-4.6 1.2-7.3 4.6-6.7 8.5.7 4.2 2.1 4.2 2.5.1.6-6.3 9.7-6.6 11.8-.4 1.2 3.8.1 8-5 18.8-1.6 3.4-2.8 6.4-2.5 6.6.2.2 4.8-1.1 10.3-2.9 8.4-2.7 9.8-3.5 9.4-5.1-.6-2.3-.7-2.3-8.6.7-3.6 1.4-6.6 2.1-6.6 1.6 0-.4 1.6-4.2 3.5-8.4 4-8.6 4.4-13.3 1.5-16.9-2.3-3-5.2-3.8-9.6-2.6zM256.6 588.2c-1.3 1.9-1.4 2.5-.2 4.3 2 3.1 6.3 3.2 7.7.2 2.5-5.4-4.1-9.4-7.5-4.5zM218.7 610.7c-12 11.9-18.4 19-17.8 19.6.6.6 2.1 0 4.1-1.7 1.7-1.4 3.7-2.6 4.3-2.6 1.5 0 44.7 43.2 44.7 44.7 0 .6-1.1 2.5-2.5 4.1-2.5 3-3.2 5.2-1.7 5.2.4 0 5.7-4.8 11.6-10.6 7.4-7.3 10.5-10.9 9.8-11.6-.8-.8-2.1-.3-4.2 1.6-1.7 1.4-3.9 2.6-4.7 2.6-.9 0-6.2-4.5-11.7-10l-10.1-9.9 7.5-7.6c4.2-4.2 8.3-7.5 9.4-7.5 1.1 0 3 1 4.2 2.1 1.5 1.4 2.9 1.9 4 1.5 1.5-.6.2-2.3-6.9-9.4-5.9-5.9-9-8.3-9.7-7.6-.7.7-.2 2.1 1.5 4.3 2.2 3.1 2.3 3.6 1 6-1.2 2.4-4.3 5.5-11.8 12.1l-2.8 2.4-9.4-9.4c-5.2-5.2-9.5-10-9.5-10.6 0-1.9 15.7-16.3 18.5-17 2.1-.5 3.3 0 5.6 2.2 2.1 2 3.2 2.5 4 1.7.8-.8-.2-2.7-3.6-6.9-2.6-3.3-4.8-6-4.9-6.1-.1-.1-8.6 8.2-18.9 18.4zM267.2 601.7c-1.7 2.7-3.7 5.6-4.4 6.5-1.8 2.5-.3 3.3 2.6 1.4 1.4-.9 3-1.6 3.5-1.6 1.2 0 21.1 23.6 21.1 25 0 .6-.9 1.8-2 2.7-1.1 1-2 2.3-2 3 0 2.2 2.5 1.4 5.6-1.8 1.6-1.7 5.3-4.9 8.2-7.1 3.5-2.7 5-4.4 4.3-5.1-.7-.7-1.8-.4-3.5.7-1.4.9-3 1.6-3.5 1.6s-6.6-6.8-13.6-15c-6.9-8.3-12.7-15-12.9-15-.2 0-1.7 2.1-3.4 4.7zM857.5 602.2c-3.2 1.8-4.4 4-4.5 8 0 5 .8 6.6 4.1 8.4 3.5 1.8 7.4 1 9.4-1.9 1.5-2.1 1.5-2 1.5 1.1 0 4.3-2.2 8.4-6.2 11.6-4.2 3.3-2.4 3.4 2.4.1 4.2-2.8 7.8-9.6 7.8-14.6-.1-4.4-3.2-11.4-5.8-12.8-2.6-1.4-6.2-1.4-8.7.1zm7 2.3c2.9 2.9 3.3 7.9.8 10.7-2.2 2.4-3.9 2.3-6.8-.7-3.3-3.2-3.4-8.7-.3-10.9 3-2.1 3.5-2 6.3.9zM838.2 608.4c-2.4 1.2-4 2.5-3.6 2.9.4.4 1.8 0 3-.8 2.1-1.4 2.3-1.3 2.8 1.3.3 1.5.8 6.4 1.2 10.9.6 8 .5 8.3-1.7 9.3-1.9.8-1.4.9 2.5.5 2.7-.3 5.6-.5 6.5-.6.9-.1.5-.4-.9-.8-2.4-.7-2.5-1.2-3.7-12.5-.6-6.5-1.3-11.9-1.5-12.1-.1-.2-2.2.7-4.6 1.9zM892.6 609.4c-4.9 1.1-9.1 2.7-9.4 3.4-.3 1 .4 1.2 3.2.7 8.3-1.6 16.7-4.1 16.7-5 .1-1.5-1-1.4-10.5.9zM818 612.2c-1.6 1.7-2 3.5-2 8.7 0 10.7 4.5 15.6 11 12.1 5-2.7 4.8-18.8-.4-22.2-2.2-1.5-6.6-.8-8.6 1.4zm7.6 1.3c2.1 3.2 3.1 14.4 1.5 17.4-1.7 3-5.2 2.4-7-1.3-1.9-4.1-2-16.4-.1-17.6 2.4-1.6 3.8-1.2 5.6 1.5zM800.8 613.2c-1.8 1.5-3.1 4.8-1.9 4.8.5 0 1.1-.7 1.5-1.5.7-1.9 5-2 6.5-.1 1.8 2.2.3 6.2-4.5 11.5-2.4 2.7-4.4 5.2-4.4 5.5 0 .8 6.9.8 10.9 0 4.8-1 3.7-2.4-2-2.4h-5.1l4.1-5.1c4.7-5.9 5.5-11.1 2.2-12.9-2.6-1.4-5.4-1.3-7.3.2zM647.9 716.9c-1.6 1.6-2.9 3.6-2.9 4.5 0 2.7 2.1 2.8 4.5.2 3.9-4.2 10.1-3.2 12.9 2.2.8 1.6 2 6.5 2.6 11 1.9 14.1 5.4 21.3 11.8 25 2.2 1.2 4.8 2.2 5.9 2.2 1 0 2.9.7 4.2 1.6 2.7 1.9 4.6.7 3.6-2.4-.4-1.4-2.2-2.6-5.8-3.6-9.1-2.7-12.8-8.3-15.2-23.2-2.4-15-6.5-20.4-15-20.4-2.7 0-4.4.8-6.6 2.9zM699.5 777c-1 1.7 1.4 4.9 5.3 6.9 4.2 2.1 6.3 4.3 8.3 8.5 1.8 3.8 3.3 3.8 3.7.1.4-4.3-2.9-8.8-9.3-12.9-5.9-3.8-7-4.2-8-2.6zM477.9 767.2c-.9 2.1-.6 3.6 2 9.5 4.2 9.7 5.4 16.2 4.9 26.3-.3 4.7-.2 9.3.1 10.3.6 1.7.8 1.7 2.5-.2s1.8-3.2 1.3-13.3c-.6-9.9-2.3-20.7-4.3-27.1-.6-1.7-.3-1.9 2.2-1.3 5.5 1.4 9.6 4.9 19.1 16.3 13 15.7 17.6 18.5 33 20.2 10.6 1.1 14.9 3.3 25.8 13.2 4.9 4.4 10.6 8.9 12.7 10 2 1 7.9 2.5 13.1 3.3 5.2.8 11 2.2 12.8 3.1 2.9 1.5 9.8 6.9 17.7 13.9 4.3 3.8 2.4-.8-2.7-6.5-6.3-7.1-14.2-11.3-25-13.3-11.6-2.2-15.2-4.1-26.4-14-12.2-10.7-15.7-12.5-27.5-14.3-14.2-2.1-18.2-4.6-32.4-20.4-10-11-17.7-16.8-23.6-17.6-3.7-.5-4.3-.3-5.3 1.9zM723.6 810.9c-7.6 7.8-11.5 9.1-32.4 11.1-.2 0-4.9 4.7-10.5 10.4-9.2 9.3-11.2 10.8-20.1 15.1-8.9 4.2-9.7 4.8-8.3 6.2 1.4 1.4 2 1.4 5.9-.1 8.7-3.5 18.1-9.9 25.7-17.7l7.8-7.9 8.4-1.4c10.1-1.6 14.9-3.5 20.4-8.1 3.8-3 8.3-10 7.3-11.1-.2-.2-2.1 1.4-4.2 3.5z"/><path d="M539.3 822.6c-.9 2.3 8 10.8 15.7 15.1 3.6 2 7.7 4.7 9.2 6.1 3 2.8 4.3 2.5 3.3-.7-.6-2-5.4-5.5-14.5-10.4-3-1.6-6.3-4.5-8.2-7.2-3.4-4.8-4.5-5.4-5.5-2.9zM503.8 829.6c-.5.4-.8 3-.8 5.8 0 5.6 3.6 13.1 8.4 17.5 3.4 3.2 3.5.7.1-4-4.4-6.1-5.6-8.9-6.3-14.5-.4-3.1-1-5.2-1.4-4.8zM523 830.4c0 .8 3.9 4.2 8.8 7.4 4.8 3.3 11 8 13.8 10.6 5.3 4.7 6.4 5.3 6.4 3.6 0-2.2-8.5-10.1-17-15.9-10.4-7.2-12-7.9-12-5.7zM731.5 833.4c-7.3 2.3-10.7 4.7-21.9 15.5-16.7 16-24.5 20.2-41.9 22.4-8 1-8.8 1.3-8.5 3.2.4 2.9 5.1 3.1 15.1.6 14.5-3.6 23-8.6 36.6-21.5 15.7-14.8 22.5-18.1 32.4-15.3 2.1.6 2.9.4 3.4-.9 1.4-3.8-7.9-6.3-15.2-4z"/><path d="M486.7 836.1c-4.3 6 6.5 21.9 19.3 28.4 14.4 7.3 31.5 7.2 62-.2 18.3-4.4 22.9-4.2 33.9 1.5 9.4 4.9 18.2 8 26.1 9.1 6.8.9 7.8.1 2.3-1.8-2.1-.8-11.2-4.5-20.3-8.4-10.6-4.5-18.3-7.2-21.5-7.4-3.4-.3-10.2.7-21 3-29 6.4-40.7 7-54 2.6-13.8-4.6-23.4-14.9-23.5-25.2 0-4.1-1.2-4.7-3.3-1.6z"/><path d="M516.6 837.9c-.3.5 1.8 2.6 4.7 4.7 2.8 2.2 6.2 5.8 7.5 8.2 2.5 4.4 4.2 5.4 4.2 2.4 0-2.8-5-9.7-9.5-13.1-4.1-3.1-6-3.7-6.9-2.2zM394.6 625.6c-5.2 5.2 2.6 15.2 11 14.2 2.5-.3 2.9-.8 3.2-3.6.4-4-1.7-7.6-6.1-10.2-3.9-2.4-6-2.5-8.1-.4zm7.8 5.7c3 2.4 2.9 5.1-.2 4-2.5-.9-5.2-3.4-5.2-5 0-2 2.1-1.6 5.4 1zM403.8 642.1c-2.7 1.5-2.2 3.7 2.3 11.4 2.3 3.9 5.7 10.3 7.6 14.2 3.6 7.8 5.3 9.3 10.5 9.3 4.8 0 5.8-1.5 5.8-9 0-6.4-.1-6.6-4-10-3.1-2.7-4.4-4.7-5.3-8.5-1-4.2-1.8-5.3-4.7-6.7-3.9-2-9.5-2.3-12.2-.7zm10.6 5.8c.9 1 1.9 4.1 2.2 6.7.2 2.7.8 5 1.4 5.2.5.2 2.4 1.3 4.2 2.5 2.6 1.8 3.4 3.1 3.6 6 .2 2.7-.1 3.9-1.3 4.3-2.3.9-3.9-.9-8-9.4-2-4.2-5.1-9.1-6.7-10.9-1.9-1.9-2.8-3.8-2.5-4.7.9-2.2 5-2 7.1.3zM504.7 643.1c-1.7 2.4-1 6 2.3 11.6 1.1 1.9 2 4.4 2 5.6 0 3.3 2.8 6.7 5.4 6.7 7.3 0 7.6-14.4.4-22.5-3.6-4.1-7.8-4.7-10.1-1.4zm7.7 3.8c2 2.2 4.2 12 3.3 14.5-1 2.4-2.7 1-2.7-2.2 0-1.5-1.2-4.7-2.6-7.1-3.3-6-2-9.6 2-5.2zM390.1 648.6c-2.6 3.4-2.6 4.5.1 7.9 2.4 3 7.4 5.5 11.3 5.5 2.3 0 2.5-.3 2.5-4.6 0-3.9-.5-5.1-3.4-8-4.2-4.2-7.6-4.4-10.5-.8zm8.7 5.6c.4 3.5-2 3.8-4.2.6-1.8-2.6-1.2-4 1.7-3.6 1.6.2 2.3 1.1 2.5 3zM684.3 652.5c-2.8 2-5.7 9.7-4.9 12.9.9 3.6 4.2 5.2 7.3 3.5 3.3-1.7 8.3-9.6 8.3-13 0-4.6-6.2-6.5-10.7-3.4zm6.4 4.1c.1.5-1.1 2.5-2.8 4.4l-3.1 3.5.6-3.9c.5-3.8 2.1-5.9 4-5.3.6.2 1.1.7 1.3 1.3zM834.9 675.3c-1.9 1.2-4.3 3.9-5.3 5.8-2 3.6-2 3.6.3 6.7 2.1 3 2.1 3.3.6 6.2-.8 1.6-3.4 4.2-5.6 5.6-4.3 2.7-7.8 8.8-7.9 13.6 0 2.5.3 2.8 3.6 2.8 2.9 0 4.4-.8 7.3-3.8 2-2.2 5.1-4.5 6.9-5.2 4.1-1.6 8.2-6.4 8.2-9.6 0-1.4-1.2-3.7-2.6-5.1l-2.6-2.6 3.5-3.1c5.6-4.9 7.1-9.1 4.1-12-2.2-2.3-6.5-2-10.5.7zm7.1 3.2c0 2.2-4.9 6.5-7.2 6.5-3 0-1.8-3.1 2.1-5.7 4-2.7 5.1-2.9 5.1-.8zm-4.2 19.2c-.2 2-1.4 3.2-4.8 5-2.5 1.3-6 4-7.7 6.1-2.8 3.1-3.3 3.4-3.3 1.6 0-2.5 2.8-5.6 8-8.9 2.1-1.3 4.1-3.3 4.5-4.5 1-3.1 3.7-2.6 3.3.7zM509.3 675.2c-3.8 4.9-.1 16.8 4.4 14 3.1-2.1 4.6-11.5 2.1-14-1.6-1.6-5.3-1.5-6.5 0zm4.5 6c-.4 5.1-3.1 6.1-3.6 1.5-.4-3.7.4-5.7 2.3-5.7 1.3 0 1.5.9 1.3 4.2zM807.3 706.2c-3.9 4.4-10.3 15.5-10.3 18.1 0 6.1 9.8 4 14.5-3.1 3.6-5.4 4.1-9.9 1.6-14-2.4-3.8-3.1-3.9-5.8-1zm1.8 9.6c-2 3.9-6.7 8.9-7.6 8-.3-.2 1.3-3.3 3.5-6.7 4.3-6.6 7.3-7.6 4.1-1.3z"/></svg>