<svg version="1" xmlns="http://www.w3.org/2000/svg" width="933.333" height="933.333" viewBox="0 0 700.000000 700.000000"><path d="M273.1 50.5c-1.6 1.4-3.7 4.7-4.7 7.3-1 2.6-2.3 5.6-3 6.7-.7 1.1-2.4 6.3-3.9 11.5s-3.8 12.1-5.1 15.2c-1.3 3.2-3.1 8.9-4 12.6-.8 3.7-3.5 12.8-5.9 20.2-2.4 7.4-5.1 18.3-5.9 24.1-2 13.5-2.1 29-.2 32.7 4.2 8 16.9 15 53.6 29.7 28.1 11.2 43.9 16.5 49.1 16.5 1.4 0 3.9.4 5.5 1 4.8 1.6 39.4 8.1 46.4 8.7 3.6.3 13.3 0 21.5-.6 8.3-.7 25.6-1.6 38.5-2.1 12.9-.6 26.9-1.7 31-2.5 4.1-.8 9-1.5 10.8-1.5 3.3 0 15.2-4.7 15.2-6.1 0-.4.8-1.5 1.7-2.5 2.5-2.5 3.2-11.3 3.2-41.9 0-32.1-1.2-58.2-2.7-61.1-1.5-2.7-6.5-4.8-9.7-4-5.4 1.4-5.5 2.4-4.8 50.7.7 50.8 1.2 47.9-7.8 47.9-2.7 0-6.6.7-8.6 1.5-4.6 1.9-25.8 3.3-63.3 4.1-27.4.6-30.4.5-42-1.5-6.9-1.2-15-2.8-18-3.6-3-.7-7.7-1.6-10.5-2-10.7-1.4-33.9-8.7-36.5-11.5-.3-.3-5.9-2.4-12.5-4.7-18.7-6.5-27.1-9.8-32.1-12.9-2.5-1.6-6.1-3.7-7.9-4.6-5.1-2.7-6-6.2-4.7-18.1 1.2-11 4.6-26.9 8.2-38.2 6.5-20.9 8.3-26 9.5-27.9.7-1.2 2.5-6.2 4-11.1 1.4-5 3.3-10.9 4.1-13.2l1.6-4.3 3.1 1.6c1.8.9 4.6 2.7 6.3 4 1.7 1.3 3.4 2.1 3.6 1.9.4-.4 9 4 21.3 10.8 1.7.9 8.2 3.7 14.5 6.1 6.3 2.4 12.4 4.7 13.5 5.1 1.1.5 4.9 1.6 8.5 2.5 3.6 1 12.2 3.4 19.2 5.3 7 2 16.9 4.1 22 4.6 5.1.6 14 2 19.8 3.1 16.1 3.2 38.2 4.3 64.5 3.5 21.8-.8 38.2-1.4 39.7-1.5.3 0 2.1-1.2 3.8-2.7 2.8-2.3 3.1-3.1 2.6-6.1-.3-1.9-1.3-4.5-2.2-5.9l-1.6-2.6-13.7.8c-7.5.4-28.8 1-47.4 1.3-27.4.6-34 .4-35.1-.6-1.8-1.8-6.9-2.9-22.6-4.7-7.3-.8-14-2-15-2.5-1-.6-3.4-1-5.4-1-4.7 0-23.6-5.8-41-12.6-13.3-5.3-43.3-20-46.7-23-.8-.8-2.4-1.4-3.5-1.4-1-.1-3-.7-4.4-1.5-4.1-2.4-10.4-1.9-13.9 1z"/><path d="M382.5 117.9c-4.8 1.2-7.5 3-8.5 5.7-2.7 7 1.2 24.6 6.1 27.7 2.7 1.7 6.7-.1 8.6-3.7 1-1.9 4.1-5.2 7-7.5 4-3.1 5.5-5.1 6.3-8.2 2.6-9.6-.7-14.1-10.7-14.5-3.2-.2-7.1.1-8.8.5z"/><path d="M314.3 135.1c-4.3 1.6-6.9 11.1-4.3 15.9 1 1.8 6.8 4 11.4 4.2 1.1.1 2.6.5 3.1.9 2.6 1.9 49.8 9.9 58.6 9.9 2.9 0 5 .7 7.1 2.5 3.9 3.3 15 6.7 22.3 6.8 5.9 0 14.5-3 14.5-5.2 0-.5.9-1.1 1.9-1.4 2.2-.5 8.7-9.1 9.6-12.6.7-2.7-3.5-8.7-7.4-10.7-2.3-1.2-15.3.5-18.8 2.5-1 .6-5.4 2.5-9.8 4.3-7.8 3.2-8.3 3.3-22.5 3.2-22-.1-41.9-5.3-51-13.1-7.8-6.6-11.4-8.4-14.7-7.2zM375.2 172.9c-.7.4-2.5 3.2-3.8 6.2-2.8 6-2.6 8 1.2 14.6 2 3.4 3.4 4.5 8.1 6.3 4.8 1.8 6.1 1.9 8 .9 3.9-2.1 6.6-7.5 6-11.6-1.5-9.3-14.1-19.9-19.5-16.4zM94.5 186.2c-4.1 1.4-7.4 4-19.5 15.3-11.4 10.5-26.9 23.3-34 28.2-7.5 5-11.2 6.6-17.3 7.4-7.2.9-10.7 3.7-10.7 8.6 0 3.6 1.2 6.6 3.7 9.5.8.9 4.1 8.3 7.4 16.3 5.8 14.6 12.7 28.5 19.9 40 2 3.3 5.2 8.7 7.1 12 4.2 7.4 46.3 50 55.6 56.3 3.4 2.3 6.4 5 6.8 6.1.3 1 1.3 2.1 2.3 2.3.9.3 8.1 5.1 16 10.7 7.8 5.6 17 11.8 20.5 13.8 3.4 2 8 4.7 10.2 5.9 6 3.6 30.3 14.4 32.2 14.4.5 0 2.7.9 4.9 1.9 6.3 3 16.5 5.3 20.6 4.7 3-.5 4.2-.2 5.8 1.4 3 3 8.5 2.7 11.7-.8 1.4-1.5 5.7-8.6 9.5-15.7 9.6-17.9 25.4-46.7 29.9-54.5 5.1-9 16.3-31.5 19.2-38.8 1.4-3.3 3.7-7.6 5.1-9.4 1.3-1.8 3-5.6 3.6-8.3.6-2.8 1.6-6.4 2.2-8.1.9-2.4.7-3.7-.6-6.6-1.4-2.9-3.1-4.2-9.4-7.1-12-5.6-17-7.3-27.7-9.7-9.7-2-17.5-4-30-7.4-5.5-1.6-15.2-5.4-20-7.9-3.9-2.1-7.1-3.6-12.6-6.2-3.1-1.4-7-3.5-8.5-4.8-1.6-1.2-5.2-3.1-8.1-4.3-9.3-3.8-32.9-18.2-40.9-25.1-2.8-2.3-5.6-4.3-6.1-4.3-.6 0-2.8-1.9-4.9-4.3-2.1-2.3-3.9-4.1-4.1-4-.1.1-1.6-1.1-3.4-2.8-1.7-1.6-3.5-2.9-3.9-2.9-.5 0-1.2-.9-1.5-2-.3-1.1-1.1-2-1.6-2-1.2 0-15.3-11.4-17.6-14.3-1.7-2.1-6.5-4.8-8.1-4.6-.4 0-2 .5-3.7 1.1zm7 20.8c.4.6 2.3 2.1 4.3 3.4 2.1 1.3 8.7 7 14.7 12.5 6.1 5.6 12.8 11.4 15 12.9 2.2 1.4 5.9 4.2 8.2 6.2 7.2 6.1 9.8 7.8 18.9 12.6 4.9 2.6 10 5.5 11.4 6.4 4.2 2.9 44 22.7 51 25.3 9.9 3.8 29.7 9.5 37.3 10.7 7.5 1.2 23.5 6.5 25.5 8.4 1.1 1.1.8 2.8-2 9.7-5.9 15.1-30.3 63-34.5 68.1-.8.9-1.6 2.2-1.7 3-.3 1.6-3.3 6.8-6.3 11.2-1.2 1.7-4 6.8-6.2 11.4-2.2 4.5-4.9 9.5-6 11-1.1 1.6-2.3 4-2.6 5.5-.8 3-2.6 3.5-4.5 1.2-.7-.8-1.9-1.5-2.6-1.5-.8 0-2.2-.4-3.2-.9-.9-.5-5.7-2.1-10.7-3.6-8.7-2.7-17.4-6.5-35.5-15.4-13.4-6.7-17.3-9.1-27.7-17.1-5.4-4.1-10-7.5-10.3-7.5-2.8-.1-26.3-19.9-43.9-37-14.3-13.9-23-24.3-27.2-32.7-1.6-3.2-3.6-6.1-4.3-6.4-.7-.3-2.2-2.4-3.2-4.7-1-2.3-3.1-6.1-4.7-8.5-4-6-14.7-30.2-14.7-33.3 0-1.8.9-3.2 2.5-4.3 1.4-.9 2.3-2.1 2-2.6-.3-.5 1.6-2.3 4.2-4.1 8-5.5 28-21.6 38.2-30.8 12.3-11.2 13.9-12.3 16.2-11 1 .5 2.1 1.4 2.4 1.9z"/><path d="M134.6 275.6c-.9.8-1.9 2.7-2.2 4.2-.3 1.5-.8 3.3-1 4-.2.7.5 3.1 1.6 5.2 1.1 2.2 2 4.4 2 5 0 .5 1.9 3.8 4.3 7.4 2.3 3.5 5.9 9 8 12.2 3.9 6.2 7.7 11.5 16.8 23.5 4.8 6.3 6.8 8 12.9 11.2 6.1 3.1 8.2 3.7 13.5 3.7 4.4 0 6.6-.5 7.5-1.5 1.5-1.8 1.8-9.3.7-15.3-.9-4.1-.8-4.2 1.7-4.2 4.1 0 9.3-2.5 11.2-5.4 2.1-3.3 1.5-11.4-1.4-17.8-3.1-6.9-8.2-11.2-19.9-16.8-9.1-4.4-12.4-5.4-20.8-6.6-11.9-1.7-25.2-5.6-28.5-8.4-2.8-2.4-4.3-2.5-6.4-.4zM572.3 225.7c-1.8 2.1-7 8-11.5 13.1-8.5 9.7-15.8 15.6-24.2 19.4-6.9 3.2-22.4 11.1-39.6 20.3-23.9 12.8-29.1 15.5-30.5 15.5-.7 0-3.5 1.1-6.2 2.4-5.6 2.8-39.6 12.9-52.8 15.7-4.9 1-12.2 1.9-16.1 1.9-5.8 0-7.7.4-9.8 2.1-2.1 1.6-2.4 2.4-1.5 3 1 .6.9 1.2-.5 2.8-2 2.2-2 2.4-4.5 44.1-1.5 23.3-3 37.9-6.1 58.5-.6 3.8-2.6 13.3-4.6 21-2.6 10.4-4.1 14.4-5.7 15.7-1.7 1.3-1.9 1.9-.9 3 .9 1.1.9 1.7 0 2.6-1.9 1.9 5.7 8.6 8.5 7.7 6.2-1.9 9.7-2.5 14.7-2.5 5.5 0 12.8-1.8 18.5-4.4 1.7-.8 7.5-2.1 13-2.9 27.4-4.3 52-16.4 126.1-62.1 5.5-3.4 12.8-9.4 23.8-19.6 3.9-3.6 12.4-11.2 18.8-16.8 6.4-5.6 14.9-13.8 18.9-18.1 6-6.7 7.8-8.1 11.2-8.6 2.2-.4 5.1-1.8 6.5-3.2 2.2-2.2 2.3-3 1.8-7.7-.6-4.1-.4-5.5.8-6.6 1.8-1.4 2.1-5.3.5-8.1-.6-1.1-3-2.9-5.5-3.9-3.4-1.5-4.4-2.5-4.4-4.2-.1-7.1-2.2-21.5-3.5-23.5-.9-1.3-1.1-2.3-.5-2.3.5 0 1-.8 1-1.8 0-2.2-6.5-15.8-13-27.2-2.7-4.7-5.6-11.2-6.6-14.5-.9-3.3-3-7.9-4.7-10.3-3.9-5.5-6.8-5.6-11.4-.5zm5.8 28.3c.5.3 3 4.9 5.7 10.1 5 9.8 6.4 15.1 9.7 35.9.8 5.2 2.5 12.3 3.7 15.7l2.1 6.1-3.4 5.4c-4.2 6.5-14.5 19-16.7 20.2-2 1.1-5.2 3.9-22.9 19.8-20.1 18.3-30.5 25.8-52.3 38.1-6.3 3.5-15.9 9-21.2 12.1-5.3 3.1-9.9 5.6-10.3 5.6-.4 0-2.5 1.3-4.8 2.8-6.6 4.5-25.8 14-30.4 15.2-2.4.6-4.3 1.4-4.3 1.9 0 .4-1.4.8-3 .9-1.7 0-7 1.2-11.8 2.5-4.8 1.3-11.2 3-14.2 3.7-3 .7-7.1 1.9-9 2.7-1.9.8-6.4 1.6-9.8 1.8-5.7.4-6.3.2-5.7-1.3 1.5-3.6 6.4-24.6 7-30 .4-3.1 1.3-10 2.1-15.2.8-5.2 1.4-13.2 1.4-17.7s.6-13.3 1.4-19.5c1.2-9.5 2.9-30.8 3.1-38.3 0-1.8 1.1-2.2 9-3.3 11.1-1.5 23.8-4.7 42-10.5 14.9-4.8 35.3-12.5 37.6-14.3.8-.6 3-1.7 4.9-2.4 1.9-.8 5.9-2.9 8.8-4.7 2.9-1.8 5.5-3.3 5.9-3.3.3 0 1.4-.6 2.2-1.4 2.5-2.2 25.9-14.2 32.3-16.6 6.4-2.4 16-8.5 26.1-16.9 3.7-3.1 8-6.4 9.5-7.3 2.5-1.7 2.7-1.7 3.6 0 .5.9 1.3 1.9 1.7 2.2z"/><path d="M461.2 337.1c-3.8 6.9-14.6 23.7-17.8 27.6-3.9 4.8-7.3 11.8-7.4 15 0 2.9 2 3.8 10.2 5.1 3.7.6 8.8 2 11.4 3.1 2.5 1.2 5.3 2.1 6 2.1.7 0 2.9.7 4.8 1.7 4.3 2 6 1 8.6-5.2 2.8-6.5 11.1-14.7 23.5-23.1 8.4-5.7 11.7-8.6 12.1-10.4.3-1.4 1-3.5 1.6-4.7.9-1.8.8-2.7-.7-4.3-1.6-1.8-3.1-2-13.4-2-12.7 0-20.1-1.4-28.1-5.5-6.6-3.3-8.7-3.2-10.8.6zM678.2 500.6c-2.1 1.4-6.9 1.8-34.5 2.5-20.8.6-35.7.6-42-.1-5.5-.6-38.1-1-74.2-.9-61.8 0-64.3.1-64.8 1.9-.4 1.5-1.2 1.7-4.4 1.3-5.1-.7-7.9 1.7-16.3 13.4-3.4 4.9-9.7 13.2-13.9 18.5l-7.6 9.7-97.5.3c-73.3.2-98.2.6-100.2 1.5-3.4 1.5-5.8 5.2-7.4 11.4-.7 2.7-2.3 6.3-3.6 8-4.1 5.3-15.1 18.4-22.3 26.5-12.1 13.6-20.8 26.8-24.9 37.6-2 5.3-3.6 10.7-3.6 11.9 0 2.9 6 8.4 10.7 9.9 2.1.7 4.5 1.8 5.3 2.5.8.7 3.3 1.5 5.5 1.8 2.2.2 10.5 1.6 18.5 3 39.3 7.1 67.1 8.7 101 5.9 8.5-.6 37.3-1.7 64-2.2 50.7-1 71.8-2.2 83.4-4.5 8.7-1.8 11.6-3.7 11.6-7.4 0-1.6.9-4 2-5.3 1.9-2.5 5.8-12 8.7-21.3.8-2.8 2.1-6.5 2.9-8.2l1.4-3.3h12.2c6.8 0 16.1-.4 20.8-1 4.7-.5 23.4-1.4 41.5-2 18.2-.6 35.7-1.5 39-2 3.3-.5 13.9-1.5 23.5-2.1 9.6-.5 18.6-1.3 20-1.7 1.6-.5 3.7-2.7 5.7-6.2 5.6-9.6 8.1-13.3 15.3-23 3.8-5.2 7.7-11 8.6-12.8.9-1.9 2.7-5 4.1-7 1.3-2 6.3-11.3 11-20.7 4.7-9.3 9.1-17.7 9.9-18.5 4-4.6 5.7-14.7 2.9-17-2.5-2.1-9.7-2.4-12.3-.4zM654 519.4c2.5 0 6.2-.3 8.2-.8 3.4-.7 3.9-.6 4.8 1.6 1 2 .8 3-1 5.9-1.2 1.9-5.2 8.8-8.9 15.4-8.6 15.4-12 20.8-20.4 32.5-5.2 7.3-6.7 10.1-6.4 12.2.4 3.1.2 3.1-19.3 4.3-5.2.4-11.5 1.1-14 1.6s-18.9 1.3-36.5 1.8c-19.9.6-36.4 1.6-43.5 2.6-13.5 2-38.8 1.7-41.4-.4-1.2-1-3.1-1-9.3-.1-9.1 1.4-28.5.7-38.3-1.4-3.6-.8-9.1-2-12.3-2.6-6.7-1.4-6.7-.8-.4-11.8 3.8-6.7 12.7-18.4 25.8-33.7 2.8-3.3 7.3-9.2 9.9-13.1 3.2-4.7 5.8-7.4 7.4-7.8 1.4-.3 3.7-2.1 5.1-3.9l2.6-3.2 91.7.4c50.4.3 93.7.5 96.2.5zm-247 45.1c0 .2-1.3 1.9-2.9 3.7-1.6 1.8-4.1 5.5-5.6 8.3-1.5 2.7-4.5 7.3-6.6 10.1-5.4 7.1-5.3 12.1.2 16.2 1.9 1.4 14.2 4.7 21.5 5.7 2.7.4 7.2 1.3 10 2s10.2 1.6 16.5 1.9c16.1.9 17.9 1.3 17.9 3.6 0 1.1-.8 2.8-1.7 3.8-3.6 3.8-6.2 10.1-6.9 16.6-.4 3.6-1.2 7-1.8 7.5-1.7 1.4-31.8 3.1-72.1 4-25.2.5-37.7 1.2-39.2 2-2 1-2.2.9-1.6-.5.5-1.5 0-1.6-3.8-1-2.4.3-13.6 1-24.9 1.6-11.3.5-22.5 1.2-25 1.5-2.5.3-14.6.1-27-.4-18.7-.8-25.7-1.6-41.5-4.5-21.3-4-33.5-6.6-33.5-7.1 0-3.7 13.5-25.5 17.4-28 1.4-.9 2.8-2.5 3.1-3.6.4-1.1 4.3-5.8 8.7-10.6 7.9-8.5 15.5-18.2 21.4-27.3l3-4.5 8.9-.6c11-.6 165.5-1.1 165.5-.4z"/><path d="M526 527.9c0 .4-1.6 1.1-3.5 1.4-5.5.9-10.5 4.4-10.5 7.3 0 4 4.2 7.4 9.2 7.4 10.3 0 15.6-3.8 14.4-10.4-.8-4.1-2.8-6-5.6-5.3-1.1.3-2 .1-2-.4s-.4-.9-1-.9c-.5 0-1 .4-1 .9z"/><path d="M492.3 541c-5 1.2-9.7 4.4-10.8 7.4-1.4 4 1.8 9.3 7.5 12.4 5 2.7 11.5 2.6 17.2-.3 1.7-.8 4.6-1.5 6.5-1.5 1.9 0 4.3-.5 5.4-1 2.5-1.4 2.4-.8-.6 3.6s-3.1 6.8-.5 9.4c4.1 4.1 17.8 1.8 20.2-3.4.9-2.1.8-2.9-.5-4.4-1-1-1.7-2.3-1.7-2.9 0-1.4-2.4-2.3-6.3-2.4-3.2 0-3.2 0-.7-1 1.5-.6 6.3-.8 12-.4 5.2.4 11.4.8 13.6 1 2.3.1 4.7.6 5.4 1 .7.4 4.1 1 7.5 1.3 6.4.5 6.4.5 8.5-2.9 1.3-2.1 1.9-4.7 1.8-6.9l-.3-3.5-7 .1c-3.8 0-11.7.2-17.5.4-5.8.2-11.8 0-13.4-.5-1.7-.5-6.8-.3-12.6.5l-9.8 1.3-8.4-4.2c-8.5-4.2-9.9-4.5-15.5-3.1zM311.3 579.1c-2.6.6-4.3 1.6-4.3 2.5 0 .8-1 1.4-2.3 1.4-2.4 0-6.7 3.7-6.7 5.8 0 .7-.4 1.2-1 1.2-1.7 0-1.1 4.1 1.1 6.8l2.1 2.7-4.3.3c-2.3.2-8.4-.4-13.6-1.4-10.7-1.9-11.9-1.5-12.1 4.2-.1 3.7 1.2 7.3 3.2 8.6 2 1.4 16.5.9 20.3-.7 1.9-.8 4.7-1.5 6.1-1.5 2.4 0 2.4.2 1.8 4.6-1 7.7 1.3 9.8 13.1 11.5 5.4.8 6.9.6 13-1.7 20.1-7.6 44.1-23.5 44.3-29.4 0-.8-.5-3.2-1.1-5.3-.9-3.2-1.9-4.2-7.2-7l-6.2-3.2-21-.2c-11.5-.1-22.9.3-25.2.8z"/></svg>